<svg id="eSF06Ze4dwX1" xmlns="http://www.w3.org/2000/svg" xmlns:xlink="http://www.w3.org/1999/xlink" viewBox="0 0 1091 585" shape-rendering="geometricPrecision" text-rendering="geometricPrecision"><rect width="1091" height="585" rx="0" ry="0" fill="#0e1c29" stroke="#0e1c29" stroke-width="0"/><rect width="1061" height="503" rx="11.5" ry="11.5" transform="translate(14.5 9.5)" fill="#0e1c29" stroke="#0090d4"/><path d="M67.2004,555.536h-4.032v-.736h8.88v.736h-4.032v10.464h-.816v-10.464ZM84.04,565.264v.736h-7.728v-11.2h7.488v.736h-6.672v4.416h5.968v.72h-5.968v4.592h6.912Zm12.1431-2.416h-6.496L88.2631,566h-.88l5.152-11.2h.816l5.152,11.2h-.88l-1.44-3.152Zm-.304-.688l-2.944-6.464-2.928,6.464h5.872ZM113.368,566l-.016-9.584-4.688,8.096h-.4l-4.688-8.064v9.552h-.8v-11.2h.688l5.008,8.656l5.008-8.656h.672l.016,11.2h-.8Zm22.239-11.2L130.615,566h-.816l-4.992-11.2h.896l4.528,10.144l4.528-10.144h.848Zm10.63,8.048h-6.496L138.317,566h-.88l5.152-11.2h.816l5.152,11.2h-.88l-1.44-3.152Zm-.304-.688l-2.944-6.464-2.928,6.464h5.872Zm6.897-7.36h.816v10.464h6.448v.736h-7.264v-11.2Zm15.765,11.28c-1.419,0-2.523-.411-3.312-1.232-.779-.821-1.168-2.021-1.168-3.6v-6.448h.816v6.416c0,1.376.314,2.405.944,3.088.629.683,1.541,1.024,2.736,1.024c1.184,0,2.09-.341,2.72-1.024.629-.683.944-1.712.944-3.088v-6.416h.816v6.448c0,1.579-.395,2.779-1.184,3.6-.79.821-1.894,1.232-3.312,1.232Zm17.237-3.232h-6.496L177.912,566h-.88l5.152-11.2h.816l5.152,11.2h-.88l-1.44-3.152Zm-.304-.688l-2.944-6.464-2.928,6.464h5.872Zm8.479-6.624h-4.032v-.736h8.88v.736h-4.032v10.464h-.816v-10.464Zm9.111-.736h.816v11.2h-.816v-11.2Zm11.711,11.28c-1.099,0-2.091-.245-2.976-.736-.885-.501-1.584-1.184-2.096-2.048-.501-.864-.752-1.829-.752-2.896s.251-2.032.752-2.896c.512-.864,1.211-1.541,2.096-2.032.885-.501,1.877-.752,2.976-.752s2.091.245,2.976.736s1.579,1.168,2.08,2.032c.512.864.768,1.835.768,2.912s-.256,2.048-.768,2.912c-.501.864-1.195,1.541-2.08,2.032s-1.877.736-2.976.736Zm0-.752c.939,0,1.787-.213,2.544-.64s1.355-1.013,1.792-1.76c.437-.757.656-1.6.656-2.528s-.219-1.765-.656-2.512c-.437-.757-1.035-1.349-1.792-1.776s-1.605-.64-2.544-.64-1.792.213-2.56.64c-.757.427-1.355,1.019-1.792,1.776-.437.747-.656,1.584-.656,2.512s.219,1.771.656,2.528c.437.747,1.035,1.333,1.792,1.76.768.427,1.621.64,2.56.64ZM234.843,554.8v11.2h-.672l-7.632-9.728v9.728h-.816v-11.2h.688l7.616,9.728v-9.728h.816Zm12.501,0h.816v11.2h-.816v-11.2Zm16.079,0v11.2h-.672l-7.632-9.728v9.728h-.816v-11.2h.688l7.616,9.728v-9.728h.816Zm10.887,11.28c-1.099,0-2.091-.245-2.976-.736-.875-.491-1.568-1.168-2.08-2.032-.501-.864-.752-1.835-.752-2.912s.251-2.048.752-2.912c.512-.864,1.205-1.541,2.08-2.032.885-.491,1.877-.736,2.976-.736.811,0,1.557.133,2.24.4.683.256,1.264.64,1.744,1.152l-.512.528c-.896-.885-2.043-1.328-3.44-1.328-.939,0-1.792.213-2.56.64s-1.371,1.019-1.808,1.776c-.437.747-.656,1.584-.656,2.512s.219,1.771.656,2.528c.437.747,1.04,1.333,1.808,1.76s1.621.64,2.56.64c1.387,0,2.533-.448,3.44-1.344l.512.528c-.48.512-1.067.901-1.76,1.168-.683.267-1.424.4-2.224.4Zm16.733-.08l-2.672-3.744c-.395.053-.757.08-1.088.08h-3.2v3.664h-.816v-11.2h4.016c1.408,0,2.512.336,3.312,1.008.8.661,1.2,1.584,1.2,2.768c0,.885-.229,1.632-.688,2.24-.448.597-1.093,1.019-1.936,1.264l2.8,3.92h-.928Zm-3.76-4.384c1.195,0,2.107-.261,2.736-.784.629-.533.944-1.285.944-2.256s-.315-1.717-.944-2.24c-.629-.533-1.541-.8-2.736-.8h-3.2v6.08h3.2Zm17.468,3.648v.736h-7.728v-11.2h7.488v.736h-6.672v4.416h5.968v.72h-5.968v4.592h6.912Zm12.143-2.416h-6.496L308.974,566h-.88l5.152-11.2h.816l5.152,11.2h-.88l-1.44-3.152Zm-.304-.688l-2.944-6.464-2.928,6.464h5.872Zm9.841,3.92c-.821,0-1.605-.139-2.352-.416-.736-.288-1.312-.656-1.728-1.104l.368-.608c.395.416.923.757,1.584,1.024.672.256,1.376.384,2.112.384c1.067,0,1.872-.203,2.416-.608s.816-.933.816-1.584c0-.501-.144-.901-.432-1.2s-.645-.528-1.072-.688-1.003-.325-1.728-.496c-.821-.203-1.483-.4-1.984-.592-.491-.192-.912-.485-1.264-.88-.341-.405-.512-.944-.512-1.616c0-.544.144-1.04.432-1.488.288-.459.725-.821,1.312-1.088.597-.267,1.339-.4,2.224-.4.619,0,1.227.091,1.824.272s1.115.427,1.552.736l-.304.656c-.448-.309-.944-.544-1.488-.704-.533-.16-1.061-.24-1.584-.24-1.035,0-1.819.208-2.352.624s-.8.955-.8,1.616c0,.501.144.901.432,1.2s.645.528,1.072.688s1.008.331,1.744.512c.821.203,1.477.4,1.968.592s.907.485,1.248.88c.352.384.528.907.528,1.568c0,.544-.149,1.04-.448,1.488-.288.448-.736.805-1.344,1.072s-1.355.4-2.24.4Zm16.774-.816v.736h-7.728v-11.2h7.488v.736h-6.672v4.416h5.968v.72h-5.968v4.592h6.912Zm12.797-4.48c-.736,0-1.334-.277-1.792-.832-.448-.555-.672-1.285-.672-2.192s.224-1.637.672-2.192c.458-.555,1.056-.832,1.792-.832s1.333.277,1.792.832c.458.555.688,1.285.688,2.192s-.23,1.637-.688,2.192c-.459.555-1.056.832-1.792.832Zm6.832-5.984h.688L355.874,566h-.688l7.648-11.2Zm-6.832,5.44c.565,0,1.018-.219,1.36-.656.341-.448.512-1.056.512-1.824s-.171-1.371-.512-1.808c-.342-.448-.795-.672-1.36-.672-.555,0-1.003.224-1.344.672-.342.448-.512,1.051-.512,1.808s.17,1.36.512,1.808c.341.448.789.672,1.344.672Zm6.704,5.824c-.736,0-1.334-.277-1.792-.832-.459-.555-.688-1.285-.688-2.192s.229-1.637.688-2.192c.458-.555,1.056-.832,1.792-.832s1.328.277,1.776.832c.458.555.688,1.285.688,2.192s-.23,1.637-.688,2.192c-.448.555-1.04.832-1.776.832Zm0-.544c.554,0,1.002-.224,1.344-.672.341-.448.512-1.051.512-1.808s-.171-1.36-.512-1.808c-.342-.448-.79-.672-1.344-.672-.566,0-1.019.224-1.36.672-.342.437-.512,1.04-.512,1.808s.17,1.376.512,1.824c.341.437.794.656,1.36.656Z" fill="#fff"/><rect width="31" height="31" rx="0" ry="0" transform="translate(14 544)" fill="#0090d4"/><line x1="168" y1="325.5" x2="991" y2="325.5" opacity="0.1" fill="none" stroke="#fff"/><line x1="168" y1="241.5" x2="991" y2="241.5" opacity="0.1" fill="none" stroke="#fff"/><line x1="168" y1="159.5" x2="991" y2="159.5" opacity="0.1" fill="none" stroke="#fff"/><path d="M166.239,440.8v11.2h-.672l-7.632-9.728v9.728h-.816v-11.2h.688l7.616,9.728v-9.728h.816Zm13.879,10.464v.736h-7.728v-11.2h7.488v.736h-6.672v4.416h5.968v.72h-5.968v4.592h6.912ZM200.153,440.8L196.361,452h-.864l-3.472-10.048L188.537,452h-.864l-3.808-11.2h.864l3.408,10.08l3.504-10.08h.784l3.488,10.096l3.44-10.096h.8Zm18.904,10.464v.736h-7.728v-11.2h7.488v.736h-6.672v4.416h5.968v.72h-5.968v4.592h6.912ZM233.392,440.8v11.2h-.672l-7.632-9.728v9.728h-.816v-11.2h.688l7.616,9.728v-9.728h.816Zm14.152,5.648h.784v4.192c-.491.469-1.088.827-1.792,1.072-.694.245-1.43.368-2.208.368-1.11,0-2.112-.245-3.008-.736-.886-.491-1.584-1.168-2.096-2.032-.502-.864-.752-1.835-.752-2.912s.25-2.048.752-2.912c.512-.864,1.21-1.541,2.096-2.032.896-.491,1.904-.736,3.024-.736.821,0,1.573.133,2.256.4.693.256,1.285.635,1.776,1.136l-.512.544c-.47-.469-.998-.805-1.584-1.008-.576-.213-1.216-.32-1.92-.32-.96,0-1.83.213-2.608.64-.768.427-1.371,1.019-1.808,1.776-.438.747-.656,1.584-.656,2.512c0,.917.218,1.755.656,2.512.448.747,1.056,1.339,1.824,1.776.768.427,1.632.64,2.592.64c1.28,0,2.341-.341,3.184-1.024v-3.856Zm6.615-5.648h.816v10.464h6.448v.736h-7.264v-11.2Zm18.543,8.048h-6.496L264.782,452h-.88l5.152-11.2h.816l5.152,11.2h-.88l-1.44-3.152Zm-.304-.688l-2.944-6.464-2.928,6.464h5.872Zm16.017-7.36v11.2h-.672l-7.632-9.728v9.728h-.816v-11.2h.688l7.616,9.728v-9.728h.816Zm6.151,0h4.432c1.163,0,2.192.24,3.088.72.907.48,1.611,1.147,2.112,2c.501.843.752,1.803.752,2.88s-.251,2.043-.752,2.896c-.501.843-1.205,1.504-2.112,1.984-.896.48-1.925.72-3.088.72h-4.432v-11.2Zm4.368,10.464c1.035,0,1.947-.203,2.736-.608.789-.416,1.397-.992,1.824-1.728s.64-1.579.64-2.528-.213-1.792-.64-2.528-1.035-1.307-1.824-1.712c-.789-.416-1.701-.624-2.736-.624h-3.552v9.728h3.552ZM189.378,466.8c1.408,0,2.512.336,3.312,1.008.8.661,1.2,1.584,1.2,2.768c0,1.173-.4,2.096-1.2,2.768-.8.661-1.904.992-3.312.992h-3.2v3.664h-.816v-11.2h4.016Zm0,6.8c1.195,0,2.107-.261,2.736-.784s.944-1.269.944-2.24-.315-1.717-.944-2.24c-.629-.533-1.541-.8-2.736-.8h-3.2v6.064h3.2Zm15.871,1.248h-6.496L197.329,478h-.88l5.152-11.2h.816l5.152,11.2h-.88l-1.44-3.152Zm-.304-.688l-2.944-6.464-2.928,6.464h5.872Zm8.478-6.624h-4.032v-.736h8.88v.736h-4.032v10.464h-.816v-10.464ZM230.311,478l-2.672-3.744c-.395.053-.757.08-1.088.08h-3.2v3.664h-.816v-11.2h4.016c1.408,0,2.512.336,3.312,1.008.8.661,1.2,1.584,1.2,2.768c0,.885-.229,1.632-.688,2.24-.448.597-1.093,1.019-1.936,1.264l2.8,3.92h-.928Zm-3.76-4.384c1.195,0,2.107-.261,2.736-.784.629-.533.944-1.285.944-2.256s-.315-1.717-.944-2.24c-.629-.533-1.541-.8-2.736-.8h-3.2v6.08h3.2Zm9.74-6.816h.816v11.2h-.816v-11.2Zm11.711,11.28c-1.099,0-2.091-.245-2.976-.736-.886-.501-1.584-1.184-2.096-2.048-.502-.864-.752-1.829-.752-2.896s.25-2.032.752-2.896c.512-.864,1.21-1.541,2.096-2.032.885-.501,1.877-.752,2.976-.752c1.098,0,2.09.245,2.976.736.885.491,1.578,1.168,2.08,2.032.512.864.768,1.835.768,2.912s-.256,2.048-.768,2.912c-.502.864-1.195,1.541-2.08,2.032-.886.491-1.878.736-2.976.736Zm0-.752c.938,0,1.786-.213,2.544-.64.757-.427,1.354-1.013,1.792-1.76.437-.757.656-1.6.656-2.528s-.219-1.765-.656-2.512c-.438-.757-1.035-1.349-1.792-1.776-.758-.427-1.606-.64-2.544-.64-.939,0-1.792.213-2.56.64-.758.427-1.355,1.019-1.792,1.776-.438.747-.656,1.584-.656,2.512s.218,1.771.656,2.528c.437.747,1.034,1.333,1.792,1.76.768.427,1.621.64,2.56.64Zm12.882-9.792h-4.032v-.736h8.88v.736h-4.032v10.464h-.816v-10.464Zm11.852,10.544c-.821,0-1.605-.139-2.352-.416-.736-.288-1.312-.656-1.728-1.104l.368-.608c.395.416.923.757,1.584,1.024.672.256,1.376.384,2.112.384c1.067,0,1.872-.203,2.416-.608s.816-.933.816-1.584c0-.501-.144-.901-.432-1.2s-.645-.528-1.072-.688-1.003-.325-1.728-.496c-.821-.203-1.483-.4-1.984-.592-.491-.192-.912-.485-1.264-.88-.341-.405-.512-.944-.512-1.616c0-.544.144-1.04.432-1.488.288-.459.725-.821,1.312-1.088.597-.267,1.339-.4,2.224-.4.619,0,1.227.091,1.824.272s1.115.427,1.552.736l-.304.656c-.448-.309-.944-.544-1.488-.704-.533-.16-1.061-.24-1.584-.24-1.035,0-1.819.208-2.352.624s-.8.955-.8,1.616c0,.501.144.901.432,1.2s.645.528,1.072.688s1.008.331,1.744.512c.821.203,1.477.4,1.968.592s.907.485,1.248.88c.352.384.528.907.528,1.568c0,.544-.149,1.04-.448,1.488-.288.448-.736.805-1.344,1.072s-1.355.4-2.24.4Z" fill="#fff"/><path d="M360.114,440.8L356.322,452h-.864l-3.472-10.048L348.498,452h-.864l-3.808-11.2h.864l3.408,10.08l3.504-10.08h.784l3.488,10.096l3.44-10.096h.8Zm11.176,8.048h-6.496L363.37,452h-.88l5.152-11.2h.816L373.61,452h-.88l-1.44-3.152Zm-.304-.688l-2.944-6.464-2.928,6.464h5.872Zm9.841,3.92c-.821,0-1.605-.139-2.352-.416-.736-.288-1.312-.656-1.728-1.104l.368-.608c.395.416.923.757,1.584,1.024.672.256,1.376.384,2.112.384c1.067,0,1.872-.203,2.416-.608s.816-.933.816-1.584c0-.501-.144-.901-.432-1.2s-.645-.528-1.072-.688c-.426-.16-1.002-.325-1.728-.496-.821-.203-1.482-.4-1.984-.592-.49-.192-.912-.485-1.264-.88-.341-.405-.512-.944-.512-1.616c0-.544.144-1.04.432-1.488.288-.459.726-.821,1.312-1.088.598-.267,1.339-.4,2.224-.4.619,0,1.227.091,1.824.272.598.181,1.115.427,1.552.736l-.304.656c-.448-.309-.944-.544-1.488-.704-.533-.16-1.061-.24-1.584-.24-1.034,0-1.818.208-2.352.624-.533.416-.8.955-.8,1.616c0,.501.144.901.432,1.2s.646.528,1.072.688c.427.16,1.008.331,1.744.512.822.203,1.478.4,1.968.592.491.192.907.485,1.248.88.352.384.528.907.528,1.568c0,.544-.149,1.04-.448,1.488-.288.448-.736.805-1.344,1.072s-1.354.4-2.24.4Zm18.166-11.28v11.2h-.816v-5.328h-7.488v5.328h-.816v-11.2h.816v5.152h7.488v-5.152h.816Zm6.151,0h.816v11.2h-.816v-11.2Zm16.079,0v11.2h-.672l-7.632-9.728v9.728h-.816v-11.2h.688l7.616,9.728v-9.728h.816Zm14.152,5.648h.784v4.192c-.491.469-1.088.827-1.792,1.072-.694.245-1.43.368-2.208.368-1.11,0-2.112-.245-3.008-.736-.886-.491-1.584-1.168-2.096-2.032-.502-.864-.752-1.835-.752-2.912s.25-2.048.752-2.912c.512-.864,1.21-1.541,2.096-2.032.896-.491,1.904-.736,3.024-.736.821,0,1.573.133,2.256.4.693.256,1.285.635,1.776,1.136l-.512.544c-.47-.469-.998-.805-1.584-1.008-.576-.213-1.216-.32-1.92-.32-.96,0-1.83.213-2.608.64-.768.427-1.371,1.019-1.808,1.776-.438.747-.656,1.584-.656,2.512c0,.917.218,1.755.656,2.512.448.747,1.056,1.339,1.824,1.776.768.427,1.632.64,2.592.64c1.28,0,2.341-.341,3.184-1.024v-3.856Zm8.758-4.912h-4.032v-.736h8.88v.736h-4.032v10.464h-.816v-10.464Zm13.708,10.544c-1.099,0-2.091-.245-2.976-.736-.885-.501-1.584-1.184-2.096-2.048-.501-.864-.752-1.829-.752-2.896s.251-2.032.752-2.896c.512-.864,1.211-1.541,2.096-2.032.885-.501,1.877-.752,2.976-.752s2.091.245,2.976.736s1.579,1.168,2.08,2.032c.512.864.768,1.835.768,2.912s-.256,2.048-.768,2.912c-.501.864-1.195,1.541-2.08,2.032s-1.877.736-2.976.736Zm0-.752c.939,0,1.787-.213,2.544-.64s1.355-1.013,1.792-1.76c.437-.757.656-1.6.656-2.528s-.219-1.765-.656-2.512c-.437-.757-1.035-1.349-1.792-1.776s-1.605-.64-2.544-.64-1.792.213-2.56.64c-.757.427-1.355,1.019-1.792,1.776-.437.747-.656,1.584-.656,2.512s.219,1.771.656,2.528c.437.747,1.035,1.333,1.792,1.76.768.427,1.621.64,2.56.64ZM477.855,440.8v11.2h-.672l-7.632-9.728v9.728h-.816v-11.2h.688l7.616,9.728v-9.728h.816ZM345.749,478.08c-1.099,0-2.091-.245-2.976-.736-.875-.491-1.568-1.168-2.08-2.032-.502-.864-.752-1.835-.752-2.912s.25-2.048.752-2.912c.512-.864,1.205-1.541,2.08-2.032.885-.491,1.877-.736,2.976-.736.81,0,1.557.133,2.24.4.682.256,1.264.64,1.744,1.152l-.512.528c-.896-.885-2.043-1.328-3.44-1.328-.939,0-1.792.213-2.56.64s-1.371,1.019-1.808,1.776c-.438.747-.656,1.584-.656,2.512s.218,1.771.656,2.528c.437.747,1.04,1.333,1.808,1.76s1.621.64,2.56.64c1.386,0,2.533-.448,3.44-1.344l.512.528c-.48.512-1.067.901-1.76,1.168-.683.267-1.424.4-2.224.4Zm13.474,0c-1.098,0-2.09-.245-2.976-.736-.885-.501-1.584-1.184-2.096-2.048-.501-.864-.752-1.829-.752-2.896s.251-2.032.752-2.896c.512-.864,1.211-1.541,2.096-2.032.886-.501,1.878-.752,2.976-.752c1.099,0,2.091.245,2.976.736.886.491,1.579,1.168,2.08,2.032.512.864.768,1.835.768,2.912s-.256,2.048-.768,2.912c-.501.864-1.194,1.541-2.08,2.032-.885.491-1.877.736-2.976.736Zm0-.752c.939,0,1.787-.213,2.544-.64.758-.427,1.355-1.013,1.792-1.76.438-.757.656-1.6.656-2.528s-.218-1.765-.656-2.512c-.437-.757-1.034-1.349-1.792-1.776-.757-.427-1.605-.64-2.544-.64-.938,0-1.792.213-2.56.64-.757.427-1.354,1.019-1.792,1.776-.437.747-.656,1.584-.656,2.512s.219,1.771.656,2.528c.438.747,1.035,1.333,1.792,1.76.768.427,1.622.64,2.56.64ZM380.71,478l-.016-9.584-4.688,8.096h-.4l-4.688-8.064v9.552h-.8v-11.2h.688l5.008,8.656l5.008-8.656h.672l.016,11.2h-.8Zm17.537,0l-.016-9.584-4.689,8.096h-.4l-4.688-8.064v9.552h-.8v-11.2h.688l5.008,8.656l5.008-8.656h.673l.016,11.2h-.8Zm13.872-3.152h-6.496L404.199,478h-.88l5.152-11.2h.816l5.152,11.2h-.88l-1.44-3.152Zm-.304-.688l-2.944-6.464-2.928,6.464h5.872Zm16.018-7.36v11.2h-.672l-7.632-9.728v9.728h-.816v-11.2h.688l7.616,9.728v-9.728h.816Zm6.151,0h4.432c1.163,0,2.192.24,3.088.72.907.48,1.611,1.147,2.112,2c.501.843.752,1.803.752,2.88s-.251,2.043-.752,2.896c-.501.843-1.205,1.504-2.112,1.984-.896.48-1.925.72-3.088.72h-4.432v-11.2Zm4.368,10.464c1.035,0,1.947-.203,2.736-.608.789-.416,1.397-.992,1.824-1.728s.64-1.579.64-2.528-.213-1.792-.64-2.528-1.035-1.307-1.824-1.712c-.789-.416-1.701-.624-2.736-.624h-3.552v9.728h3.552Zm18.819,0v.736h-7.728v-11.2h7.488v.736h-6.672v4.416h5.968v.72h-5.968v4.592h6.912Zm12.991.736l-2.672-3.744c-.395.053-.758.08-1.088.08h-3.2v3.664h-.816v-11.2h4.016c1.408,0,2.512.336,3.312,1.008.8.661,1.2,1.584,1.2,2.768c0,.885-.23,1.632-.688,2.24-.448.597-1.094,1.019-1.936,1.264l2.8,3.92h-.928Zm-3.76-4.384c1.194,0,2.106-.261,2.736-.784.629-.533.944-1.285.944-2.256s-.315-1.717-.944-2.24c-.63-.533-1.542-.8-2.736-.8h-3.2v6.08h3.2Zm12.683,4.464c-.821,0-1.605-.139-2.352-.416-.736-.288-1.312-.656-1.728-1.104l.368-.608c.395.416.923.757,1.584,1.024.672.256,1.376.384,2.112.384c1.067,0,1.872-.203,2.416-.608s.816-.933.816-1.584c0-.501-.144-.901-.432-1.2s-.645-.528-1.072-.688c-.426-.16-1.002-.325-1.728-.496-.821-.203-1.482-.4-1.984-.592-.49-.192-.912-.485-1.264-.88-.341-.405-.512-.944-.512-1.616c0-.544.144-1.04.432-1.488.288-.459.726-.821,1.312-1.088.598-.267,1.339-.4,2.224-.4.619,0,1.227.091,1.824.272.598.181,1.115.427,1.552.736l-.304.656c-.448-.309-.944-.544-1.488-.704-.533-.16-1.061-.24-1.584-.24-1.034,0-1.818.208-2.352.624-.533.416-.8.955-.8,1.616c0,.501.144.901.432,1.2s.646.528,1.072.688c.427.16,1.008.331,1.744.512.822.203,1.478.4,1.968.592.491.192.907.485,1.248.88.352.384.528.907.528,1.568c0,.544-.149,1.04-.448,1.488-.288.448-.736.805-1.344,1.072s-1.354.4-2.24.4Z" fill="#fff"/><path d="M550.263,440.8v11.2h-.672l-7.632-9.728v9.728h-.816v-11.2h.688l7.616,9.728v-9.728h.816Zm13.879,10.464v.736h-7.728v-11.2h7.489v.736h-6.673v4.416h5.968v.72h-5.968v4.592h6.912ZM584.177,440.8L580.385,452h-.864l-3.472-10.048L572.561,452h-.864l-3.808-11.2h.864l3.408,10.08l3.504-10.08h.784l3.488,10.096l3.44-10.096h.8Zm14.632,7.344v3.856h-.816v-3.856l-4.512-7.344h.896l4.048,6.592l4.048-6.592h.848l-4.512,7.344Zm13.052,3.936c-1.099,0-2.091-.245-2.976-.736-.885-.501-1.584-1.184-2.096-2.048-.501-.864-.752-1.829-.752-2.896s.251-2.032.752-2.896c.512-.864,1.211-1.541,2.096-2.032.885-.501,1.877-.752,2.976-.752s2.091.245,2.976.736s1.579,1.168,2.08,2.032c.512.864.768,1.835.768,2.912s-.256,2.048-.768,2.912c-.501.864-1.195,1.541-2.08,2.032s-1.877.736-2.976.736Zm0-.752c.939,0,1.787-.213,2.544-.64s1.355-1.013,1.792-1.76c.437-.757.656-1.6.656-2.528s-.219-1.765-.656-2.512c-.437-.757-1.035-1.349-1.792-1.776s-1.605-.64-2.544-.64-1.792.213-2.56.64c-.757.427-1.355,1.019-1.792,1.776-.437.747-.656,1.584-.656,2.512s.219,1.771.656,2.528c.437.747,1.035,1.333,1.792,1.76.768.427,1.621.64,2.56.64Zm18.67.672l-2.672-3.744c-.395.053-.757.08-1.088.08h-3.2v3.664h-.816v-11.2h4.016c1.408,0,2.512.336,3.312,1.008.8.661,1.2,1.584,1.2,2.768c0,.885-.229,1.632-.688,2.24-.448.597-1.093,1.019-1.936,1.264l2.8,3.92h-.928Zm-3.76-4.384c1.195,0,2.107-.261,2.736-.784.629-.533.944-1.285.944-2.256s-.315-1.717-.944-2.24c-.629-.533-1.541-.8-2.736-.8h-3.2v6.08h3.2Zm13.068-1.136l-2.512,2.576v2.944h-.816v-11.2h.816v7.2l6.992-7.2h.992l-4.928,5.088L645.647,452h-.992l-4.816-5.52Zm-72.971,25.968h.784v4.192c-.491.469-1.088.827-1.792,1.072-.694.245-1.43.368-2.208.368-1.11,0-2.112-.245-3.008-.736-.886-.491-1.584-1.168-2.096-2.032-.502-.864-.752-1.835-.752-2.912s.25-2.048.752-2.912c.512-.864,1.21-1.541,2.096-2.032.896-.491,1.904-.736,3.024-.736.821,0,1.573.133,2.256.4.693.256,1.285.635,1.776,1.136l-.512.544c-.47-.469-.998-.805-1.584-1.008-.576-.213-1.216-.32-1.92-.32-.96,0-1.83.213-2.608.64-.768.427-1.371,1.019-1.808,1.776-.438.747-.656,1.584-.656,2.512c0,.917.218,1.755.656,2.512.448.747,1.056,1.339,1.824,1.776.768.427,1.632.64,2.592.64c1.28,0,2.341-.341,3.184-1.024v-3.856Zm6.615-5.648h.816v11.2h-.816v-11.2Zm13.886,8.048h-6.496L579.449,478h-.88l5.152-11.2h.816l5.152,11.2h-.88l-1.44-3.152Zm-.304-.688l-2.944-6.464-2.928,6.464h5.872Zm16.018-7.36v11.2h-.672l-7.632-9.728v9.728h-.816v-11.2h.688l7.616,9.728v-9.728h.816Zm8.295.736h-4.032v-.736h8.88v.736h-4.032v10.464h-.816v-10.464ZM623.23,478.08c-.821,0-1.605-.139-2.352-.416-.736-.288-1.312-.656-1.728-1.104l.368-.608c.395.416.923.757,1.584,1.024.672.256,1.376.384,2.112.384c1.067,0,1.872-.203,2.416-.608s.816-.933.816-1.584c0-.501-.144-.901-.432-1.2s-.645-.528-1.072-.688c-.426-.16-1.002-.325-1.728-.496-.821-.203-1.482-.4-1.984-.592-.49-.192-.912-.485-1.264-.88-.341-.405-.512-.944-.512-1.616c0-.544.144-1.04.432-1.488.288-.459.726-.821,1.312-1.088.598-.267,1.339-.4,2.224-.4.619,0,1.227.091,1.824.272.598.181,1.115.427,1.552.736l-.304.656c-.448-.309-.944-.544-1.488-.704-.533-.16-1.061-.24-1.584-.24-1.034,0-1.818.208-2.352.624-.533.416-.8.955-.8,1.616c0,.501.144.901.432,1.2s.646.528,1.072.688c.427.16,1.008.331,1.744.512.822.203,1.478.4,1.968.592.491.192.907.485,1.248.88.352.384.528.907.528,1.568c0,.544-.149,1.04-.448,1.488-.288.448-.736.805-1.344,1.072s-1.354.4-2.24.4Z" fill="#fff"/><path d="M734.835,452.08c-1.098,0-2.09-.245-2.976-.736-.874-.491-1.568-1.168-2.08-2.032-.501-.864-.752-1.835-.752-2.912s.251-2.048.752-2.912c.512-.864,1.206-1.541,2.08-2.032.886-.491,1.878-.736,2.976-.736.811,0,1.558.133,2.24.4.683.256,1.264.64,1.744,1.152l-.512.528c-.896-.885-2.042-1.328-3.44-1.328-.938,0-1.792.213-2.56.64s-1.37,1.019-1.808,1.776c-.437.747-.656,1.584-.656,2.512s.219,1.771.656,2.528c.438.747,1.04,1.333,1.808,1.76s1.622.64,2.56.64c1.387,0,2.534-.448,3.44-1.344l.512.528c-.48.512-1.066.901-1.76,1.168-.682.267-1.424.4-2.224.4Zm18.077-11.28v11.2h-.816v-5.328h-7.488v5.328h-.816v-11.2h.816v5.152h7.488v-5.152h.816Zm6.152,0h.816v11.2h-.816v-11.2Zm11.694,11.28c-1.098,0-2.09-.245-2.976-.736-.874-.491-1.568-1.168-2.08-2.032-.501-.864-.752-1.835-.752-2.912s.251-2.048.752-2.912c.512-.864,1.206-1.541,2.08-2.032.886-.491,1.878-.736,2.976-.736.811,0,1.558.133,2.24.4.683.256,1.264.64,1.744,1.152l-.512.528c-.896-.885-2.042-1.328-3.44-1.328-.938,0-1.792.213-2.56.64s-1.37,1.019-1.808,1.776c-.437.747-.656,1.584-.656,2.512s.219,1.771.656,2.528c.438.747,1.04,1.333,1.808,1.76s1.622.64,2.56.64c1.387,0,2.534-.448,3.44-1.344l.512.528c-.48.512-1.066.901-1.76,1.168-.682.267-1.424.4-2.224.4Zm15.589-3.232h-6.496L778.427,452h-.88l5.152-11.2h.816l5.152,11.2h-.88l-1.44-3.152Zm-.304-.688l-2.944-6.464-2.928,6.464h5.872Zm14.741-1.712h.784v4.192c-.491.469-1.088.827-1.792,1.072-.694.245-1.43.368-2.208.368-1.11,0-2.112-.245-3.008-.736-.886-.491-1.584-1.168-2.096-2.032-.502-.864-.752-1.835-.752-2.912s.25-2.048.752-2.912c.512-.864,1.21-1.541,2.096-2.032.896-.491,1.904-.736,3.024-.736.821,0,1.573.133,2.256.4.693.256,1.285.635,1.776,1.136l-.512.544c-.47-.469-.998-.805-1.584-1.008-.576-.213-1.216-.32-1.92-.32-.96,0-1.83.213-2.608.64-.768.427-1.371,1.019-1.808,1.776-.438.747-.656,1.584-.656,2.512c0,.917.218,1.755.656,2.512.448.747,1.056,1.339,1.824,1.776.768.427,1.632.64,2.592.64c1.28,0,2.341-.341,3.184-1.024v-3.856Zm11.367,5.632c-1.099,0-2.091-.245-2.976-.736-.886-.501-1.584-1.184-2.096-2.048-.502-.864-.752-1.829-.752-2.896s.25-2.032.752-2.896c.512-.864,1.21-1.541,2.096-2.032.885-.501,1.877-.752,2.976-.752c1.098,0,2.09.245,2.976.736.885.491,1.578,1.168,2.08,2.032.512.864.768,1.835.768,2.912s-.256,2.048-.768,2.912c-.502.864-1.195,1.541-2.08,2.032-.886.491-1.878.736-2.976.736Zm0-.752c.938,0,1.786-.213,2.544-.64.757-.427,1.354-1.013,1.792-1.76.437-.757.656-1.6.656-2.528s-.219-1.765-.656-2.512c-.438-.757-1.035-1.349-1.792-1.776-.758-.427-1.606-.64-2.544-.64-.939,0-1.792.213-2.56.64-.758.427-1.355,1.019-1.792,1.776-.438.747-.656,1.584-.656,2.512s.218,1.771.656,2.528c.437.747,1.034,1.333,1.792,1.76.768.427,1.621.64,2.56.64Zm-62.164,20.896c.8.149,1.408.464,1.824.944.427.48.64,1.104.64,1.872c0,.949-.346,1.68-1.04,2.192-.693.512-1.722.768-3.088.768h-4.992v-11.2h4.672c1.216,0,2.16.251,2.832.752.683.491,1.024,1.195,1.024,2.112c0,.64-.17,1.179-.512,1.616-.33.437-.784.752-1.36.944Zm-5.84-4.72v4.464h3.824c.982,0,1.734-.187,2.256-.56.534-.384.8-.944.8-1.68c0-.725-.266-1.275-.8-1.648-.522-.384-1.274-.576-2.256-.576h-3.824Zm4.176,9.792c1.088,0,1.91-.187,2.464-.56.566-.384.848-.971.848-1.76s-.282-1.371-.848-1.744c-.554-.373-1.376-.56-2.464-.56h-4.176v4.624h4.176Zm17.008-.032v.736h-7.728v-11.2h7.488v.736h-6.672v4.416h5.968v.72h-5.968v4.592h6.912Zm12.143-2.416h-6.496L769.554,478h-.88l5.152-11.2h.816l5.152,11.2h-.88l-1.44-3.152Zm-.304-.688l-2.944-6.464-2.928,6.464h5.872ZM791.843,478l-2.672-3.744c-.395.053-.757.08-1.088.08h-3.2v3.664h-.816v-11.2h4.016c1.408,0,2.512.336,3.312,1.008.8.661,1.2,1.584,1.2,2.768c0,.885-.229,1.632-.688,2.24-.448.597-1.093,1.019-1.936,1.264l2.8,3.92h-.928Zm-3.76-4.384c1.195,0,2.107-.261,2.736-.784.629-.533.944-1.285.944-2.256s-.315-1.717-.944-2.24c-.629-.533-1.541-.8-2.736-.8h-3.2v6.08h3.2Zm12.684,4.464c-.822,0-1.606-.139-2.352-.416-.736-.288-1.312-.656-1.728-1.104l.368-.608c.394.416.922.757,1.584,1.024.672.256,1.376.384,2.112.384c1.066,0,1.872-.203,2.416-.608s.816-.933.816-1.584c0-.501-.144-.901-.432-1.2s-.646-.528-1.072-.688c-.427-.16-1.003-.325-1.728-.496-.822-.203-1.483-.4-1.984-.592-.491-.192-.912-.485-1.264-.88-.342-.405-.512-.944-.512-1.616c0-.544.144-1.04.432-1.488.288-.459.725-.821,1.312-1.088.597-.267,1.338-.4,2.224-.4.618,0,1.226.091,1.824.272.597.181,1.114.427,1.552.736l-.304.656c-.448-.309-.944-.544-1.488-.704-.534-.16-1.062-.24-1.584-.24-1.035,0-1.819.208-2.352.624-.534.416-.8.955-.8,1.616c0,.501.144.901.432,1.2s.645.528,1.072.688c.426.16,1.008.331,1.744.512.821.203,1.477.4,1.968.592.49.192.906.485,1.248.88.352.384.528.907.528,1.568c0,.544-.15,1.04-.448,1.488-.288.448-.736.805-1.344,1.072s-1.355.4-2.24.4Z" fill="#fff"/><path d="M888.447,440.8h.816v10.464h6.448v.736h-7.264v-11.2Zm16.133,11.28c-1.099,0-2.091-.245-2.976-.736-.885-.501-1.584-1.184-2.096-2.048-.501-.864-.752-1.829-.752-2.896s.251-2.032.752-2.896c.512-.864,1.211-1.541,2.096-2.032.885-.501,1.877-.752,2.976-.752s2.091.245,2.976.736s1.579,1.168,2.08,2.032c.512.864.768,1.835.768,2.912s-.256,2.048-.768,2.912c-.501.864-1.195,1.541-2.08,2.032s-1.877.736-2.976.736Zm0-.752c.939,0,1.787-.213,2.544-.64s1.355-1.013,1.792-1.76c.437-.757.656-1.6.656-2.528s-.219-1.765-.656-2.512c-.437-.757-1.035-1.349-1.792-1.776s-1.605-.64-2.544-.64-1.792.213-2.56.64c-.757.427-1.355,1.019-1.792,1.776-.437.747-.656,1.584-.656,2.512s.219,1.771.656,2.528c.437.747,1.035,1.333,1.792,1.76.768.427,1.621.64,2.56.64Zm13.838.752c-.821,0-1.605-.139-2.352-.416-.736-.288-1.312-.656-1.728-1.104l.368-.608c.395.416.923.757,1.584,1.024.672.256,1.376.384,2.112.384c1.067,0,1.872-.203,2.416-.608s.816-.933.816-1.584c0-.501-.144-.901-.432-1.2s-.645-.528-1.072-.688c-.426-.16-1.002-.325-1.728-.496-.821-.203-1.482-.4-1.984-.592-.49-.192-.912-.485-1.264-.88-.341-.405-.512-.944-.512-1.616c0-.544.144-1.04.432-1.488.288-.459.726-.821,1.312-1.088.598-.267,1.339-.4,2.224-.4.619,0,1.227.091,1.824.272.598.181,1.115.427,1.552.736l-.304.656c-.448-.309-.944-.544-1.488-.704-.533-.16-1.061-.24-1.584-.24-1.034,0-1.818.208-2.352.624-.533.416-.8.955-.8,1.616c0,.501.144.901.432,1.2s.646.528,1.072.688c.427.16,1.008.331,1.744.512.822.203,1.478.4,1.968.592.491.192.907.485,1.248.88.352.384.528.907.528,1.568c0,.544-.149,1.04-.448,1.488-.288.448-.736.805-1.344,1.072s-1.354.4-2.24.4Zm22.324-3.232h-6.496L932.822,452h-.88l5.152-11.2h.816l5.152,11.2h-.88l-1.44-3.152Zm-.304-.688l-2.944-6.464-2.928,6.464h5.872Zm16.017-7.36v11.2h-.672l-7.632-9.728v9.728h-.816v-11.2h.688l7.616,9.728v-9.728h.816Zm14.151,5.648h.784v4.192c-.491.469-1.088.827-1.792,1.072-.693.245-1.429.368-2.208.368-1.109,0-2.112-.245-3.008-.736-.885-.491-1.584-1.168-2.096-2.032-.501-.864-.752-1.835-.752-2.912s.251-2.048.752-2.912c.512-.864,1.211-1.541,2.096-2.032.896-.491,1.904-.736,3.024-.736.821,0,1.573.133,2.256.4.693.256,1.285.635,1.776,1.136l-.512.544c-.469-.469-.997-.805-1.584-1.008-.576-.213-1.216-.32-1.92-.32-.96,0-1.829.213-2.608.64-.768.427-1.371,1.019-1.808,1.776-.437.747-.656,1.584-.656,2.512c0,.917.219,1.755.656,2.512.448.747,1.056,1.339,1.824,1.776.768.427,1.632.64,2.592.64c1.28,0,2.341-.341,3.184-1.024v-3.856Zm14.343,4.816v.736h-7.728v-11.2h7.488v.736h-6.672v4.416h5.968v.72h-5.968v4.592h6.912Zm5.215-10.464h.816v10.464h6.448v.736h-7.264v-11.2Zm19.326,10.464v.736h-7.73v-11.2h7.49v.736h-6.67v4.416h5.97v.72h-5.97v4.592h6.91Zm8.16.816c-.82,0-1.6-.139-2.35-.416-.74-.288-1.31-.656-1.73-1.104l.37-.608c.39.416.92.757,1.58,1.024.67.256,1.38.384,2.11.384c1.07,0,1.88-.203,2.42-.608s.82-.933.82-1.584c0-.501-.15-.901-.44-1.2-.28-.299-.64-.528-1.07-.688-.42-.16-1-.325-1.73-.496-.82-.203-1.48-.4-1.98-.592-.49-.192-.91-.485-1.26-.88-.34-.405-.52-.944-.52-1.616c0-.544.15-1.04.44-1.488.28-.459.72-.821,1.31-1.088.6-.267,1.34-.4,2.22-.4.62,0,1.23.091,1.83.272.59.181,1.11.427,1.55.736l-.31.656c-.44-.309-.94-.544-1.48-.704s-1.06-.24-1.59-.24c-1.03,0-1.82.208-2.35.624s-.8.955-.8,1.616c0,.501.14.901.43,1.2s.65.528,1.07.688c.43.16,1.01.331,1.75.512.82.203,1.48.4,1.97.592s.9.485,1.24.88c.36.384.53.907.53,1.568c0,.544-.15,1.04-.45,1.488-.28.448-.73.805-1.34,1.072s-1.35.4-2.24.4ZM936.946,478l-2.672-3.744c-.395.053-.757.08-1.088.08h-3.2v3.664h-.816v-11.2h4.016c1.408,0,2.512.336,3.312,1.008.8.661,1.2,1.584,1.2,2.768c0,.885-.229,1.632-.688,2.24-.448.597-1.093,1.019-1.936,1.264l2.8,3.92h-.928Zm-3.76-4.384c1.195,0,2.107-.261,2.736-.784.629-.533.944-1.285.944-2.256s-.315-1.717-.944-2.24c-.629-.533-1.541-.8-2.736-.8h-3.2v6.08h3.2Zm16.668,1.232h-6.496L941.934,478h-.88l5.152-11.2h.816l5.152,11.2h-.88l-1.44-3.152Zm-.304-.688l-2.944-6.464-2.928,6.464h5.872ZM967.039,478l-.016-9.584-4.688,8.096h-.4l-4.688-8.064v9.552h-.8v-11.2h.688l5.008,8.656l5.008-8.656h.672l.016,11.2h-.8Zm9.889.08c-.821,0-1.605-.139-2.352-.416-.736-.288-1.312-.656-1.728-1.104l.368-.608c.395.416.923.757,1.584,1.024.672.256,1.376.384,2.112.384c1.067,0,1.872-.203,2.416-.608s.816-.933.816-1.584c0-.501-.144-.901-.432-1.2s-.645-.528-1.072-.688-1.003-.325-1.728-.496c-.821-.203-1.483-.4-1.984-.592-.491-.192-.912-.485-1.264-.88-.341-.405-.512-.944-.512-1.616c0-.544.144-1.04.432-1.488.288-.459.725-.821,1.312-1.088.597-.267,1.339-.4,2.224-.4.619,0,1.227.091,1.824.272s1.115.427,1.552.736l-.304.656c-.448-.309-.944-.544-1.488-.704-.533-.16-1.061-.24-1.584-.24-1.035,0-1.819.208-2.352.624s-.8.955-.8,1.616c0,.501.144.901.432,1.2s.645.528,1.072.688s1.008.331,1.744.512c.821.203,1.477.4,1.968.592s.907.485,1.248.88c.352.384.528.907.528,1.568c0,.544-.149,1.04-.448,1.488-.288.448-.736.805-1.344,1.072s-1.355.4-2.24.4Z" fill="#fff"/><path d="M86.0065,403.752c-2.672,0-4.16,2.016-4.16,5.632c0,3.632,1.488,5.648,4.16,5.648c2.656,0,4.144-2.016,4.144-5.648c0-3.616-1.488-5.632-4.144-5.632Zm0,1.056c1.872,0,2.864,1.52,2.864,4.576s-.992,4.608-2.864,4.608c-1.904,0-2.88-1.552-2.88-4.608s.976-4.576,2.88-4.576Z" fill="#fff"/><path d="M71.1104,324.488c1.632,0,2.816.288,3.552.864.736.565,1.104,1.371,1.104,2.416c0,.64-.1494,1.211-.448,1.712-.288.491-.7254.88-1.312,1.168s-1.3067.432-2.16.432c-.8107,0-1.5734-.139-2.288-.416-.704-.277-1.2534-.64-1.648-1.088l.416-.624c.352.405.8373.736,1.456.992.6293.256,1.312.384,2.048.384c1.0026,0,1.7706-.229,2.304-.688.544-.459.816-1.072.816-1.84c0-.843-.3094-1.483-.928-1.92-.608-.437-1.6374-.656-3.088-.656h-2.272l.592-5.424h5.936v.736h-5.248l-.432,3.952h1.6Zm12.8099,6.592c-.8534,0-1.616-.229-2.288-.688-.6614-.469-1.1787-1.131-1.552-1.984-.3627-.853-.544-1.856-.544-3.008s.1813-2.155.544-3.008c.3733-.853.8906-1.509,1.552-1.968.672-.469,1.4346-.704,2.288-.704s1.6106.235,2.272.704c.672.459,1.1893,1.115,1.552,1.968.3733.853.56,1.856.56,3.008s-.1867,2.155-.56,3.008c-.3627.853-.88,1.515-1.552,1.984-.6614.459-1.4187.688-2.272.688Zm0-.752c.704,0,1.3226-.192,1.856-.576.544-.395.9653-.96,1.264-1.696.2986-.747.448-1.632.448-2.656s-.1494-1.904-.448-2.64c-.2987-.747-.72-1.312-1.264-1.696-.5334-.395-1.152-.592-1.856-.592s-1.328.197-1.872.592c-.5334.384-.9494.949-1.248,1.696-.2987.736-.448,1.616-.448,2.64s.1493,1.909.448,2.656c.2986.736.7146,1.301,1.248,1.696.544.384,1.168.576,1.872.576Zm10.6912-4.544c-.736,0-1.3333-.277-1.792-.832-.448-.555-.672-1.285-.672-2.192s.224-1.637.672-2.192c.4587-.555,1.056-.832,1.792-.832s1.3333.277,1.792.832.688,1.285.688,2.192-.2293,1.637-.688,2.192-1.056.832-1.792.832Zm6.8325-5.984h.688L94.4835,331h-.688l7.6485-11.2Zm-6.8325,5.44c.5653,0,1.0187-.219,1.36-.656.3413-.448.512-1.056.512-1.824s-.1707-1.371-.512-1.808c-.3413-.448-.7947-.672-1.36-.672-.5547,0-1.0027.224-1.344.672s-.512,1.051-.512,1.808.1707,1.36.512,1.808.7893.672,1.344.672Zm6.7045,5.824c-.736,0-1.3338-.277-1.7925-.832s-.688-1.285-.688-2.192.2293-1.637.688-2.192s1.0565-.832,1.7925-.832s1.328.277,1.776.832c.458.555.688,1.285.688,2.192s-.23,1.637-.688,2.192c-.448.555-1.04.832-1.776.832Zm0-.544c.554,0,1.002-.224,1.344-.672.341-.448.512-1.051.512-1.808s-.171-1.36-.512-1.808c-.342-.448-.79-.672-1.344-.672-.566,0-1.019.224-1.3605.672-.3413.437-.512,1.04-.512,1.808s.1707,1.376.512,1.824c.3415.437.7945.656,1.3605.656Z" fill="#fff"/><path d="M76.9141,235.8v.576L72.0981,247h-.896l4.768-10.464h-6.288v2.144h-.8v-2.88h8.032Zm6.28,4.688c1.632,0,2.816.288,3.552.864.736.565,1.104,1.371,1.104,2.416c0,.64-.1493,1.211-.448,1.712-.288.491-.7253.88-1.312,1.168s-1.3066.432-2.16.432c-.8106,0-1.5733-.139-2.288-.416-.704-.277-1.2533-.64-1.648-1.088l.416-.624c.352.405.8374.736,1.456.992.6294.256,1.312.384,2.048.384c1.0027,0,1.7707-.229,2.304-.688.544-.459.816-1.072.816-1.84c0-.843-.3093-1.483-.928-1.92-.608-.437-1.6373-.656-3.088-.656h-2.272l.592-5.424h5.936v.736h-5.248l-.432,3.952h1.6Zm10.5737,1.296c-.7361,0-1.3334-.277-1.7921-.832-.448-.555-.672-1.285-.672-2.192s.224-1.637.672-2.192c.4587-.555,1.056-.832,1.7921-.832.7359,0,1.3333.277,1.792.832s.6879,1.285.6879,2.192-.2293,1.637-.6879,2.192-1.0561.832-1.792.832ZM100.6,235.8h.688L93.6398,247h-.6881L100.6,235.8Zm-6.8322,5.44c.5653,0,1.0186-.219,1.3599-.656.3414-.448.5121-1.056.5121-1.824s-.1707-1.371-.5121-1.808c-.3413-.448-.7946-.672-1.3599-.672-.5547,0-1.0027.224-1.3441.672-.3413.448-.512,1.051-.512,1.808s.1707,1.36.512,1.808c.3414.448.7894.672,1.3441.672Zm6.7042,5.824c-.7362,0-1.3336-.277-1.7922-.832s-.688-1.285-.688-2.192.2293-1.637.688-2.192s1.056-.832,1.7922-.832c.736,0,1.328.277,1.776.832.458.555.688,1.285.688,2.192s-.23,1.637-.688,2.192c-.448.555-1.04.832-1.776.832Zm0-.544c.554,0,1.002-.224,1.344-.672.341-.448.512-1.051.512-1.808s-.171-1.36-.512-1.808c-.342-.448-.79-.672-1.344-.672-.5656,0-1.0189.224-1.3602.672-.3414.437-.512,1.04-.512,1.808s.1706,1.376.512,1.824c.3413.437.7946.656,1.3602.656Z" fill="#fff"/><path d="M66.9454,151.8v11.2h-.816v-10.464h-2.736v-.736h3.552Zm9.4486,11.28c-.8533,0-1.616-.229-2.288-.688-.6613-.469-1.1787-1.131-1.552-1.984-.3627-.853-.544-1.856-.544-3.008s.1813-2.155.544-3.008c.3733-.853.8907-1.509,1.552-1.968.672-.469,1.4347-.704,2.288-.704s1.6107.235,2.272.704c.672.459,1.1893,1.115,1.552,1.968.3733.853.56,1.856.56,3.008s-.1867,2.155-.56,3.008c-.3627.853-.88,1.515-1.552,1.984-.6613.459-1.4187.688-2.272.688Zm0-.752c.704,0,1.3227-.192,1.856-.576.544-.395.9653-.96,1.264-1.696.2987-.747.448-1.632.448-2.656s-.1493-1.904-.448-2.64c-.2987-.747-.72-1.312-1.264-1.696-.5333-.395-1.152-.592-1.856-.592s-1.328.197-1.872.592c-.5333.384-.9493.949-1.248,1.696-.2987.736-.448,1.616-.448,2.64s.1493,1.909.448,2.656c.2987.736.7147,1.301,1.248,1.696.544.384,1.168.576,1.872.576Zm12.7712.752c-.8533,0-1.616-.229-2.288-.688-.6613-.469-1.1786-1.131-1.552-1.984-.3626-.853-.544-1.856-.544-3.008s.1814-2.155.544-3.008c.3734-.853.8907-1.509,1.552-1.968.672-.469,1.4347-.704,2.288-.704.8534,0,1.6107.235,2.272.704.672.459,1.1894,1.115,1.552,1.968.3734.853.56,1.856.56,3.008s-.1866,2.155-.56,3.008c-.3626.853-.88,1.515-1.552,1.984-.6613.459-1.4186.688-2.272.688Zm0-.752c.704,0,1.3227-.192,1.856-.576.544-.395.9654-.96,1.264-1.696.2987-.747.448-1.632.448-2.656s-.1493-1.904-.448-2.64c-.2986-.747-.72-1.312-1.264-1.696-.5333-.395-1.152-.592-1.856-.592s-1.328.197-1.872.592c-.5333.384-.9493.949-1.248,1.696-.2986.736-.448,1.616-.448,2.64s.1494,1.909.448,2.656c.2987.736.7147,1.301,1.248,1.696.544.384,1.168.576,1.872.576Zm10.6913-4.544c-.736,0-1.3333-.277-1.792-.832-.448-.555-.672-1.285-.672-2.192s.224-1.637.672-2.192c.4587-.555,1.056-.832,1.792-.832.7365,0,1.3335.277,1.7925.832.458.555.688,1.285.688,2.192s-.23,1.637-.688,2.192c-.459.555-1.056.832-1.7925.832Zm6.8325-5.984h.688L99.7285,163h-.688l7.6485-11.2Zm-6.8325,5.44c.5655,0,1.0185-.219,1.3605-.656.341-.448.512-1.056.512-1.824s-.171-1.371-.512-1.808c-.342-.448-.795-.672-1.3605-.672-.5547,0-1.0027.224-1.344.672s-.512,1.051-.512,1.808.1707,1.36.512,1.808.7893.672,1.344.672Zm6.7045,5.824c-.736,0-1.334-.277-1.792-.832-.459-.555-.688-1.285-.688-2.192s.229-1.637.688-2.192c.458-.555,1.056-.832,1.792-.832s1.328.277,1.776.832c.458.555.688,1.285.688,2.192s-.23,1.637-.688,2.192c-.448.555-1.04.832-1.776.832Zm0-.544c.554,0,1.002-.224,1.344-.672.341-.448.512-1.051.512-1.808s-.171-1.36-.512-1.808c-.342-.448-.79-.672-1.344-.672-.566,0-1.019.224-1.36.672-.342.437-.512,1.04-.512,1.808s.17,1.376.512,1.824c.341.437.794.656,1.36.656Z" fill="#fff"/><path d="M68.086,67.8v11.2h-.816v-10.464h-2.736v-.736h3.552ZM80.6226,78.264v.736h-7.696v-.576l4.736-4.704c.6187-.6187,1.0347-1.1467,1.248-1.584.224-.448.336-.9067.336-1.376c0-.7147-.2453-1.2747-.736-1.68-.48-.4053-1.1786-.608-2.096-.608-.704,0-1.3226.1067-1.856.32-.5226.2133-.976.5387-1.36.976l-.576-.512c.4267-.4907.9654-.8693,1.616-1.136.6614-.2667,1.408-.4,2.24-.4c1.0987,0,1.9734.2667,2.624.8.6507.5333.976,1.2533.976,2.16c0,.576-.128,1.1253-.384,1.648s-.736,1.1307-1.44,1.824l-4.128,4.112h6.496Zm6.5196-5.776c1.632,0,2.816.288,3.552.864.736.5653,1.104,1.3707,1.104,2.416c0,.64-.1493,1.2107-.448,1.712-.288.4907-.7253.88-1.312,1.168s-1.3066.432-2.16.432c-.8106,0-1.5733-.1387-2.288-.416-.704-.2773-1.2533-.64-1.648-1.088l.416-.624c.352.4053.8374.736,1.456.992.6294.256,1.312.384,2.048.384c1.0027,0,1.7707-.2293,2.304-.688.544-.4587.816-1.072.816-1.84c0-.8427-.3093-1.4827-.928-1.92-.608-.4373-1.6373-.656-3.088-.656h-2.272l.592-5.424h5.936v.736h-5.248l-.432,3.952h1.6Zm10.5737,1.296c-.736,0-1.3334-.2773-1.792-.832-.448-.5547-.672-1.2853-.672-2.192s.224-1.6373.672-2.192c.4586-.5547,1.056-.832,1.792-.832s1.3333.2773,1.792.832c.4586.5547.6881,1.2853.6881,2.192s-.2295,1.6373-.6881,2.192c-.4587.5547-1.056.832-1.792.832ZM104.548,67.8h.688L97.5879,79h-.688l7.6481-11.2Zm-6.8321,5.44c.5653,0,1.0186-.2187,1.36-.656.3413-.448.512-1.056.512-1.824s-.1707-1.3707-.512-1.808c-.3414-.448-.7947-.672-1.36-.672-.5547,0-1.0027.224-1.344.672s-.512,1.0507-.512,1.808.1706,1.36.512,1.808.7893.672,1.344.672Zm6.7041,5.824c-.736,0-1.333-.2773-1.792-.832s-.688-1.2853-.688-2.192.229-1.6373.688-2.192s1.056-.832,1.792-.832s1.328.2773,1.776.832c.459.5547.688,1.2853.688,2.192s-.229,1.6373-.688,2.192c-.448.5547-1.04.832-1.776.832Zm0-.544c.555,0,1.003-.224,1.344-.672s.512-1.0507.512-1.808-.171-1.36-.512-1.808-.789-.672-1.344-.672c-.565,0-1.019.224-1.36.672-.341.4373-.512,1.04-.512,1.808s.171,1.376.512,1.824c.341.4373.795.656,1.36.656Z" fill="#fff"/><line x1="1029" y1="411.5" x2="130" y2="411.5" fill="none" stroke="#fff"/><line x1="130.5" y1="69" x2="130.5" y2="411" fill="none" stroke="#fff"/><path id="eSF06Ze4dwX21" d="M222.227,226.8v1.088L217.699,238h-1.696l4.432-9.808h-5.12v2h-1.536v-3.392h8.448Zm7.806,4.704c1.098.107,1.936.448,2.512,1.024.576.565.864,1.291.864,2.176c0,.64-.16,1.221-.48,1.744-.32.512-.8.923-1.44,1.232-.63.299-1.403.448-2.32.448-.8,0-1.568-.117-2.304-.352-.736-.245-1.339-.581-1.808-1.008l.736-1.264c.384.363.874.656,1.472.88.597.213,1.232.32,1.904.32.832,0,1.477-.176,1.936-.528.469-.352.704-.837.704-1.456s-.23-1.099-.688-1.44c-.459-.341-1.152-.512-2.08-.512h-.896v-1.12l2.816-3.456h-5.392v-1.392h7.392v1.088l-2.928,3.616Zm9.384,1.312c-.779,0-1.408-.283-1.888-.848s-.72-1.301-.72-2.208.24-1.643.72-2.208s1.109-.848,1.888-.848c.778,0,1.402.283,1.872.848.48.555.72,1.291.72,2.208s-.24,1.659-.72,2.224c-.47.555-1.094.832-1.872.832Zm6.752-6.016h1.232L239.753,238h-1.232l7.648-11.2Zm-6.752,5.104c.49,0,.874-.187,1.152-.56.277-.384.416-.912.416-1.584s-.139-1.195-.416-1.568c-.278-.384-.662-.576-1.152-.576-.48,0-.864.192-1.152.576-.278.384-.416.907-.416,1.568s.138,1.184.416,1.568c.288.384.672.576,1.152.576Zm7.088,6.192c-.779,0-1.408-.277-1.888-.832-.47-.565-.704-1.307-.704-2.224s.234-1.653.704-2.208c.48-.565,1.109-.848,1.888-.848.778,0,1.408.283,1.888.848s.72,1.301.72,2.208-.24,1.643-.72,2.208-1.11.848-1.888.848Zm0-.912c.48,0,.858-.192,1.136-.576.288-.384.432-.907.432-1.568s-.144-1.184-.432-1.568c-.278-.384-.656-.576-1.136-.576-.491,0-.875.192-1.152.576-.278.373-.416.896-.416,1.568s.138,1.2.416,1.584c.277.373.661.56,1.152.56Z" opacity="0" fill="#fff"/><path id="eSF06Ze4dwX22" d="M403.024,190.128c.64.245,1.131.597,1.472,1.056.342.459.512,1.008.512,1.648c0,.672-.181,1.259-.544,1.76-.362.491-.88.869-1.552,1.136s-1.461.4-2.368.4c-.896,0-1.68-.133-2.352-.4-.661-.267-1.173-.645-1.536-1.136-.362-.501-.544-1.088-.544-1.76c0-.64.166-1.189.496-1.648.342-.459.832-.811,1.472-1.056-.512-.245-.901-.571-1.168-.976-.266-.405-.4-.885-.4-1.44c0-.619.166-1.157.496-1.616.342-.459.816-.811,1.424-1.056s1.312-.368,2.112-.368c.811,0,1.52.123,2.128.368.619.245,1.094.597,1.424,1.056.342.459.512.997.512,1.616c0,.544-.138,1.024-.416,1.44-.266.405-.656.731-1.168.976Zm-2.48-4.16c-.757,0-1.354.165-1.792.496-.437.32-.656.757-.656,1.312s.214.992.64,1.312c.438.32,1.04.48,1.808.48.779,0,1.387-.16,1.824-.48.448-.32.672-.757.672-1.312s-.229-.992-.688-1.312c-.448-.331-1.05-.496-1.808-.496Zm0,8.864c.886,0,1.584-.181,2.096-.544.512-.373.768-.875.768-1.504c0-.619-.256-1.104-.768-1.456-.512-.363-1.21-.544-2.096-.544-.885,0-1.578.181-2.08.544-.501.352-.752.837-.752,1.456c0,.629.251,1.131.752,1.504.502.363,1.195.544,2.08.544ZM412.185,184.8v11.2h-1.584v-9.808h-2.528v-1.392h4.112Zm7.122,6.016c-.778,0-1.408-.283-1.888-.848s-.72-1.301-.72-2.208.24-1.643.72-2.208s1.11-.848,1.888-.848c.779,0,1.403.283,1.872.848.48.555.72,1.291.72,2.208s-.24,1.659-.72,2.224c-.469.555-1.093.832-1.872.832Zm6.752-6.016h1.232L419.643,196h-1.232l7.648-11.2Zm-6.752,5.104c.491,0,.875-.187,1.152-.56.278-.384.416-.912.416-1.584s-.138-1.195-.416-1.568c-.277-.384-.661-.576-1.152-.576-.48,0-.864.192-1.152.576-.277.384-.416.907-.416,1.568s.139,1.184.416,1.568c.288.384.672.576,1.152.576Zm7.088,6.192c-.778,0-1.408-.277-1.888-.832-.469-.565-.704-1.307-.704-2.224s.235-1.653.704-2.208c.48-.565,1.11-.848,1.888-.848.779,0,1.408.283,1.888.848s.72,1.301.72,2.208-.24,1.643-.72,2.208-1.109.848-1.888.848Zm0-.912c.48,0,.859-.192,1.136-.576.288-.384.432-.907.432-1.568s-.144-1.184-.432-1.568c-.277-.384-.656-.576-1.136-.576-.49,0-.874.192-1.152.576-.277.373-.416.896-.416,1.568s.139,1.2.416,1.584c.278.373.662.56,1.152.56Z" opacity="0" fill="#fff"/><path id="eSF06Ze4dwX23" d="M581.814,184.128c.64.245,1.13.597,1.472,1.056.341.459.512,1.008.512,1.648c0,.672-.182,1.259-.544,1.76-.363.491-.88.869-1.552,1.136s-1.462.4-2.368.4c-.896,0-1.68-.133-2.352-.4-.662-.267-1.174-.645-1.536-1.136-.363-.501-.544-1.088-.544-1.76c0-.64.165-1.189.496-1.648.341-.459.832-.811,1.472-1.056-.512-.245-.902-.571-1.168-.976-.267-.405-.4-.885-.4-1.44c0-.619.165-1.157.496-1.616.341-.459.816-.811,1.424-1.056s1.312-.368,2.112-.368c.81,0,1.52.123,2.128.368.618.245,1.093.597,1.424,1.056.341.459.512.997.512,1.616c0,.544-.139,1.024-.416,1.44-.267.405-.656.731-1.168.976Zm-2.48-4.16c-.758,0-1.355.165-1.792.496-.438.32-.656.757-.656,1.312s.213.992.64,1.312c.437.32,1.04.48,1.808.48.778,0,1.386-.16,1.824-.48.448-.32.672-.757.672-1.312s-.23-.992-.688-1.312c-.448-.331-1.051-.496-1.808-.496Zm0,8.864c.885,0,1.584-.181,2.096-.544.512-.373.768-.875.768-1.504c0-.619-.256-1.104-.768-1.456-.512-.363-1.211-.544-2.096-.544-.886,0-1.579.181-2.08.544-.502.352-.752.837-.752,1.456c0,.629.25,1.131.752,1.504.501.363,1.194.544,2.08.544Zm16.04-.224v1.392h-8.048v-1.088l4.56-4.4c.555-.533.928-.992,1.12-1.376.192-.395.288-.789.288-1.184c0-.587-.208-1.04-.624-1.36-.405-.331-.992-.496-1.76-.496-1.237,0-2.192.405-2.864,1.216l-1.088-.944c.438-.533,1.008-.949,1.712-1.248.715-.299,1.51-.448,2.384-.448c1.174,0,2.107.283,2.8.848.694.555,1.04,1.312,1.04,2.272c0,.597-.128,1.163-.384,1.696s-.741,1.141-1.456,1.824l-3.424,3.296h5.744Zm6.144-3.792c-.779,0-1.408-.283-1.888-.848s-.72-1.301-.72-2.208.24-1.643.72-2.208s1.109-.848,1.888-.848s1.403.283,1.872.848c.48.555.72,1.291.72,2.208s-.24,1.659-.72,2.224c-.469.555-1.093.832-1.872.832Zm6.752-6.016h1.232L601.854,190h-1.232l7.648-11.2Zm-6.752,5.104c.491,0,.875-.187,1.152-.56.277-.384.416-.912.416-1.584s-.139-1.195-.416-1.568c-.277-.384-.661-.576-1.152-.576-.48,0-.864.192-1.152.576-.277.384-.416.907-.416,1.568s.139,1.184.416,1.568c.288.384.672.576,1.152.576Zm7.088,6.192c-.779,0-1.408-.277-1.888-.832-.469-.565-.704-1.307-.704-2.224s.235-1.653.704-2.208c.48-.565,1.109-.848,1.888-.848s1.408.283,1.888.848.72,1.301.72,2.208-.24,1.643-.72,2.208-1.109.848-1.888.848Zm0-.912c.48,0,.859-.192,1.136-.576.288-.384.432-.907.432-1.568s-.144-1.184-.432-1.568c-.277-.384-.656-.576-1.136-.576-.491,0-.875.192-1.152.576-.277.373-.416.896-.416,1.568s.139,1.2.416,1.584c.277.373.661.56,1.152.56Z" opacity="0" fill="#fff"/><path id="eSF06Ze4dwX24" d="M754.732,111.8v11.2h-1.584v-9.808h-2.528v-1.392h4.112Zm9.265,11.328c-.885,0-1.674-.224-2.368-.672-.682-.459-1.221-1.12-1.616-1.984-.394-.864-.592-1.888-.592-3.072s.198-2.208.592-3.072c.395-.864.934-1.52,1.616-1.968.694-.459,1.483-.688,2.368-.688.875,0,1.654.229,2.336.688.694.448,1.238,1.104,1.632,1.968.395.864.592,1.888.592,3.072s-.197,2.208-.592,3.072c-.394.864-.938,1.525-1.632,1.984-.682.448-1.461.672-2.336.672Zm0-1.424c.896,0,1.611-.368,2.144-1.104.544-.736.816-1.803.816-3.2s-.272-2.464-.816-3.2c-.533-.736-1.248-1.104-2.144-1.104-.906,0-1.632.368-2.176,1.104-.533.736-.8,1.803-.8,3.2s.267,2.464.8,3.2c.544.736,1.27,1.104,2.176,1.104Zm18.08-1.456h-2.128v2.752h-1.552v-2.752h-6.224v-1.12l5.728-7.328h1.728l-5.488,7.072h4.304v-2.432h1.504v2.432h2.128v1.376Zm5.147-2.432c-.779,0-1.408-.283-1.888-.848s-.72-1.301-.72-2.208.24-1.643.72-2.208s1.109-.848,1.888-.848s1.403.283,1.872.848c.48.555.72,1.291.72,2.208s-.24,1.659-.72,2.224c-.469.555-1.093.832-1.872.832Zm6.752-6.016h1.232L787.56,123h-1.232l7.648-11.2Zm-6.752,5.104c.491,0,.875-.187,1.152-.56.277-.384.416-.912.416-1.584s-.139-1.195-.416-1.568c-.277-.384-.661-.576-1.152-.576-.48,0-.864.192-1.152.576-.277.384-.416.907-.416,1.568s.139,1.184.416,1.568c.288.384.672.576,1.152.576Zm7.088,6.192c-.779,0-1.408-.277-1.888-.832-.469-.565-.704-1.307-.704-2.224s.235-1.653.704-2.208c.48-.565,1.109-.848,1.888-.848s1.408.283,1.888.848.72,1.301.72,2.208-.24,1.643-.72,2.208-1.109.848-1.888.848Zm0-.912c.48,0,.859-.192,1.136-.576.288-.384.432-.907.432-1.568s-.144-1.184-.432-1.568c-.277-.384-.656-.576-1.136-.576-.491,0-.875.192-1.152.576-.277.373-.416.896-.416,1.568s.139,1.2.416,1.584c.277.373.661.56,1.152.56Z" opacity="0" fill="#fff"/><path id="eSF06Ze4dwX25" d="M936.591,98.8v11.2h-1.584v-9.808h-2.528v-1.392h4.112Zm9.266,11.328c-.886,0-1.675-.224-2.368-.672-.683-.459-1.222-1.12-1.616-1.984-.395-.864-.592-1.888-.592-3.072s.197-2.208.592-3.072c.394-.864.933-1.52,1.616-1.968.693-.4587,1.482-.688,2.368-.688.874,0,1.653.2293,2.336.688.693.448,1.237,1.104,1.632,1.968.394.864.592,1.888.592,3.072s-.198,2.208-.592,3.072c-.395.864-.939,1.525-1.632,1.984-.683.448-1.462.672-2.336.672Zm0-1.424c.896,0,1.61-.368,2.144-1.104.544-.736.816-1.803.816-3.2s-.272-2.464-.816-3.2c-.534-.736-1.248-1.104-2.144-1.104-.907,0-1.632.368-2.176,1.104-.534.736-.8,1.803-.8,3.2s.266,2.464.8,3.2c.544.736,1.269,1.104,2.176,1.104ZM962.243,98.8v1.088L957.715,110h-1.696l4.432-9.808h-5.12v2h-1.536v-3.392h8.448Zm6.122,6.016c-.779,0-1.408-.283-1.888-.848s-.72-1.301-.72-2.208.24-1.643.72-2.208c.48-.5653,1.109-.848,1.888-.848.778,0,1.402.2827,1.872.848.48.555.72,1.291.72,2.208s-.24,1.659-.72,2.224c-.47.555-1.094.832-1.872.832Zm6.752-6.016h1.232L968.701,110h-1.232l7.648-11.2Zm-6.752,5.104c.49,0,.874-.187,1.152-.56.277-.384.416-.912.416-1.584s-.139-1.195-.416-1.568c-.278-.384-.662-.576-1.152-.576-.48,0-.864.192-1.152.576-.278.384-.416.907-.416,1.568s.138,1.184.416,1.568c.288.384.672.576,1.152.576Zm7.088,6.192c-.779,0-1.408-.277-1.888-.832-.47-.565-.704-1.307-.704-2.224s.234-1.653.704-2.208c.48-.565,1.109-.848,1.888-.848.778,0,1.408.283,1.888.848s.72,1.301.72,2.208-.24,1.643-.72,2.208-1.11.848-1.888.848Zm0-.912c.48,0,.858-.192,1.136-.576.288-.384.432-.907.432-1.568s-.144-1.184-.432-1.568c-.278-.384-.656-.576-1.136-.576-.491,0-.875.192-1.152.576-.278.373-.416.896-.416,1.568s.138,1.2.416,1.584c.277.373.661.56,1.152.56Z" opacity="0" fill="#fff"/><rect id="eSF06Ze4dwX26" width="53" height="160" rx="0" ry="0" transform="matrix(1 0 0 0.000029 205 411.495346)" fill="#0090d4"/><rect id="eSF06Ze4dwX27" width="53" height="201" rx="0" ry="0" transform="matrix(1 0 0-.00005 386 411.510075)" fill="#0090d4"/><rect id="eSF06Ze4dwX28" width="53" height="207" rx="0" ry="0" transform="matrix(1 0 0-.000162 567 411.533615)" fill="#0090d4"/><rect id="eSF06Ze4dwX29" width="53" height="275" rx="0" ry="0" transform="matrix(1 0 0-.000098 748 411.526999)" fill="#0090d4"/><rect id="eSF06Ze4dwX30" width="53" height="286" rx="0" ry="0" transform="matrix(1 0 0-.000031 929 411.508882)" fill="#0090d4"/><line x1="168" y1="68.5" x2="991" y2="68.4999" opacity="0.1" fill="none" stroke="#fff"/>
<script><![CDATA[
!function(t,e){"object"==typeof exports&&"undefined"!=typeof module?module.exports=e():"function"==typeof __SVGATOR_DEFINE__&&__SVGATOR_DEFINE__.amd?__SVGATOR_DEFINE__(e):((t="undefined"!=typeof globalThis?globalThis:t||self).__SVGATOR_PLAYER__=t.__SVGATOR_PLAYER__||{},t.__SVGATOR_PLAYER__["91c80d77"]=e())}(this,(function(){"use strict";function t(t,e){var n=Object.keys(t);if(Object.getOwnPropertySymbols){var r=Object.getOwnPropertySymbols(t);e&&(r=r.filter((function(e){return Object.getOwnPropertyDescriptor(t,e).enumerable}))),n.push.apply(n,r)}return n}function e(e){for(var n=1;n<arguments.length;n++){var r=null!=arguments[n]?arguments[n]:{};n%2?t(Object(r),!0).forEach((function(t){u(e,t,r[t])})):Object.getOwnPropertyDescriptors?Object.defineProperties(e,Object.getOwnPropertyDescriptors(r)):t(Object(r)).forEach((function(t){Object.defineProperty(e,t,Object.getOwnPropertyDescriptor(r,t))}))}return e}function n(t){return(n="function"==typeof Symbol&&"symbol"==typeof Symbol.iterator?function(t){return typeof t}:function(t){return t&&"function"==typeof Symbol&&t.constructor===Symbol&&t!==Symbol.prototype?"symbol":typeof t})(t)}function r(t,e){if(!(t instanceof e))throw new TypeError("Cannot call a class as a function")}function i(t,e){for(var n=0;n<e.length;n++){var r=e[n];r.enumerable=r.enumerable||!1,r.configurable=!0,"value"in r&&(r.writable=!0),Object.defineProperty(t,r.key,r)}}function o(t,e,n){return e&&i(t.prototype,e),n&&i(t,n),t}function u(t,e,n){return e in t?Object.defineProperty(t,e,{value:n,enumerable:!0,configurable:!0,writable:!0}):t[e]=n,t}function a(t){return(a=Object.setPrototypeOf?Object.getPrototypeOf:function(t){return t.__proto__||Object.getPrototypeOf(t)})(t)}function s(t,e){return(s=Object.setPrototypeOf||function(t,e){return t.__proto__=e,t})(t,e)}function l(){if("undefined"==typeof Reflect||!Reflect.construct)return!1;if(Reflect.construct.sham)return!1;if("function"==typeof Proxy)return!0;try{return Boolean.prototype.valueOf.call(Reflect.construct(Boolean,[],(function(){}))),!0}catch(t){return!1}}function f(t,e,n){return(f=l()?Reflect.construct:function(t,e,n){var r=[null];r.push.apply(r,e);var i=new(Function.bind.apply(t,r));return n&&s(i,n.prototype),i}).apply(null,arguments)}function c(t,e){if(e&&("object"==typeof e||"function"==typeof e))return e;if(void 0!==e)throw new TypeError("Derived constructors may only return object or undefined");return function(t){if(void 0===t)throw new ReferenceError("this hasn't been initialised - super() hasn't been called");return t}(t)}function h(t,e,n){return(h="undefined"!=typeof Reflect&&Reflect.get?Reflect.get:function(t,e,n){var r=function(t,e){for(;!Object.prototype.hasOwnProperty.call(t,e)&&null!==(t=a(t)););return t}(t,e);if(r){var i=Object.getOwnPropertyDescriptor(r,e);return i.get?i.get.call(n):i.value}})(t,e,n||t)}function v(t){return function(t){if(Array.isArray(t))return d(t)}(t)||function(t){if("undefined"!=typeof Symbol&&null!=t[Symbol.iterator]||null!=t["@@iterator"])return Array.from(t)}(t)||function(t,e){if(!t)return;if("string"==typeof t)return d(t,e);var n=Object.prototype.toString.call(t).slice(8,-1);"Object"===n&&t.constructor&&(n=t.constructor.name);if("Map"===n||"Set"===n)return Array.from(t);if("Arguments"===n||/^(?:Ui|I)nt(?:8|16|32)(?:Clamped)?Array$/.test(n))return d(t,e)}(t)||function(){throw new TypeError("Invalid attempt to spread non-iterable instance.\nIn order to be iterable, non-array objects must have a [Symbol.iterator]() method.")}()}function d(t,e){(null==e||e>t.length)&&(e=t.length);for(var n=0,r=new Array(e);n<e;n++)r[n]=t[n];return r}Number.isInteger||(Number.isInteger=function(t){return"number"==typeof t&&isFinite(t)&&Math.floor(t)===t}),Number.EPSILON||(Number.EPSILON=2220446049250313e-31);var y=g(Math.pow(10,-6));function g(t){var e=arguments.length>1&&void 0!==arguments[1]?arguments[1]:6;if(Number.isInteger(t))return t;var n=Math.pow(10,e);return Math.round((+t+Number.EPSILON)*n)/n}function p(t,e){var n=arguments.length>2&&void 0!==arguments[2]?arguments[2]:y;return Math.abs(t-e)<n}var m=Math.PI/180;function b(t){return t}function w(t,e,n){var r=1-n;return 3*n*r*(t*r+e*n)+n*n*n}function k(){var t=arguments.length>0&&void 0!==arguments[0]?arguments[0]:0,e=arguments.length>1&&void 0!==arguments[1]?arguments[1]:0,n=arguments.length>2&&void 0!==arguments[2]?arguments[2]:1,r=arguments.length>3&&void 0!==arguments[3]?arguments[3]:1;return t<0||t>1||n<0||n>1?null:p(t,e)&&p(n,r)?b:function(i){if(i<=0)return t>0?i*e/t:0===e&&n>0?i*r/n:0;if(i>=1)return n<1?1+(i-1)*(r-1)/(n-1):1===n&&t<1?1+(i-1)*(e-1)/(t-1):1;for(var o,u=0,a=1;u<a;){var s=w(t,n,o=(u+a)/2);if(p(i,s))break;s<i?u=o:a=o}return w(e,r,o)}}function _(){return 1}function A(t){return 1===t?1:0}function x(){var t=arguments.length>0&&void 0!==arguments[0]?arguments[0]:1,e=arguments.length>1&&void 0!==arguments[1]?arguments[1]:0;if(1===t){if(0===e)return A;if(1===e)return _}var n=1/t;return function(t){return t>=1?1:(t+=e*n)-t%n}}var O=Math.sin,S=Math.cos,E=Math.acos,P=Math.asin,j=Math.tan,M=Math.atan2,B=Math.PI/180,I=180/Math.PI,T=Math.sqrt,R=function(){function t(){var e=arguments.length>0&&void 0!==arguments[0]?arguments[0]:1,n=arguments.length>1&&void 0!==arguments[1]?arguments[1]:0,i=arguments.length>2&&void 0!==arguments[2]?arguments[2]:0,o=arguments.length>3&&void 0!==arguments[3]?arguments[3]:1,u=arguments.length>4&&void 0!==arguments[4]?arguments[4]:0,a=arguments.length>5&&void 0!==arguments[5]?arguments[5]:0;r(this,t),this.m=[e,n,i,o,u,a],this.i=null,this.w=null,this.s=null}return o(t,[{key:"determinant",get:function(){var t=this.m;return t[0]*t[3]-t[1]*t[2]}},{key:"isIdentity",get:function(){if(null===this.i){var t=this.m;this.i=1===t[0]&&0===t[1]&&0===t[2]&&1===t[3]&&0===t[4]&&0===t[5]}return this.i}},{key:"point",value:function(t,e){var n=this.m;return{x:n[0]*t+n[2]*e+n[4],y:n[1]*t+n[3]*e+n[5]}}},{key:"translateSelf",value:function(){var t=arguments.length>0&&void 0!==arguments[0]?arguments[0]:0,e=arguments.length>1&&void 0!==arguments[1]?arguments[1]:0;if(!t&&!e)return this;var n=this.m;return n[4]+=n[0]*t+n[2]*e,n[5]+=n[1]*t+n[3]*e,this.w=this.s=this.i=null,this}},{key:"rotateSelf",value:function(){var t=arguments.length>0&&void 0!==arguments[0]?arguments[0]:0;if(t%=360){var e=O(t*=B),n=S(t),r=this.m,i=r[0],o=r[1];r[0]=i*n+r[2]*e,r[1]=o*n+r[3]*e,r[2]=r[2]*n-i*e,r[3]=r[3]*n-o*e,this.w=this.s=this.i=null}return this}},{key:"scaleSelf",value:function(){var t=arguments.length>0&&void 0!==arguments[0]?arguments[0]:1,e=arguments.length>1&&void 0!==arguments[1]?arguments[1]:1;if(1!==t||1!==e){var n=this.m;n[0]*=t,n[1]*=t,n[2]*=e,n[3]*=e,this.w=this.s=this.i=null}return this}},{key:"skewSelf",value:function(t,e){if(e%=360,(t%=360)||e){var n=this.m,r=n[0],i=n[1],o=n[2],u=n[3];t&&(t=j(t*B),n[2]+=r*t,n[3]+=i*t),e&&(e=j(e*B),n[0]+=o*e,n[1]+=u*e),this.w=this.s=this.i=null}return this}},{key:"resetSelf",value:function(){var t=arguments.length>0&&void 0!==arguments[0]?arguments[0]:1,e=arguments.length>1&&void 0!==arguments[1]?arguments[1]:0,n=arguments.length>2&&void 0!==arguments[2]?arguments[2]:0,r=arguments.length>3&&void 0!==arguments[3]?arguments[3]:1,i=arguments.length>4&&void 0!==arguments[4]?arguments[4]:0,o=arguments.length>5&&void 0!==arguments[5]?arguments[5]:0,u=this.m;return u[0]=t,u[1]=e,u[2]=n,u[3]=r,u[4]=i,u[5]=o,this.w=this.s=this.i=null,this}},{key:"recomposeSelf",value:function(){var t=arguments.length>0&&void 0!==arguments[0]?arguments[0]:null,e=arguments.length>1&&void 0!==arguments[1]?arguments[1]:null,n=arguments.length>2&&void 0!==arguments[2]?arguments[2]:null,r=arguments.length>3&&void 0!==arguments[3]?arguments[3]:null,i=arguments.length>4&&void 0!==arguments[4]?arguments[4]:null;return this.isIdentity||this.resetSelf(),t&&(t.x||t.y)&&this.translateSelf(t.x,t.y),e&&this.rotateSelf(e),n&&(n.x&&this.skewSelf(n.x,0),n.y&&this.skewSelf(0,n.y)),!r||1===r.x&&1===r.y||this.scaleSelf(r.x,r.y),i&&(i.x||i.y)&&this.translateSelf(i.x,i.y),this}},{key:"decompose",value:function(){var t=arguments.length>0&&void 0!==arguments[0]?arguments[0]:0,e=arguments.length>1&&void 0!==arguments[1]?arguments[1]:0,n=this.m,r=n[0]*n[0]+n[1]*n[1],i=[[n[0],n[1]],[n[2],n[3]]],o=T(r);if(0===o)return{origin:{x:g(n[4]),y:g(n[5])},translate:{x:g(t),y:g(e)},scale:{x:0,y:0},skew:{x:0,y:0},rotate:0};i[0][0]/=o,i[0][1]/=o;var u=n[0]*n[3]-n[1]*n[2]<0;u&&(o=-o);var a=i[0][0]*i[1][0]+i[0][1]*i[1][1];i[1][0]-=i[0][0]*a,i[1][1]-=i[0][1]*a;var s=T(i[1][0]*i[1][0]+i[1][1]*i[1][1]);if(0===s)return{origin:{x:g(n[4]),y:g(n[5])},translate:{x:g(t),y:g(e)},scale:{x:g(o),y:0},skew:{x:0,y:0},rotate:0};i[1][0]/=s,i[1][1]/=s,a/=s;var l=0;return i[1][1]<0?(l=E(i[1][1])*I,i[0][1]<0&&(l=360-l)):l=P(i[0][1])*I,u&&(l=-l),a=M(a,T(i[0][0]*i[0][0]+i[0][1]*i[0][1]))*I,u&&(a=-a),{origin:{x:g(n[4]),y:g(n[5])},translate:{x:g(t),y:g(e)},scale:{x:g(o),y:g(s)},skew:{x:g(a),y:0},rotate:g(l)}}},{key:"clone",value:function(){var t=this.m;return new this.constructor(t[0],t[1],t[2],t[3],t[4],t[5])}},{key:"toString",value:function(){var t=arguments.length>0&&void 0!==arguments[0]?arguments[0]:" ";if(null===this.s){var e=this.m.map((function(t){return g(t)}));1===e[0]&&0===e[1]&&0===e[2]&&1===e[3]?this.s="translate("+e[4]+t+e[5]+")":this.s="matrix("+e.join(t)+")"}return this.s}}],[{key:"create",value:function(t){return t?Array.isArray(t)?f(this,v(t)):t instanceof this?t.clone():(new this).recomposeSelf(t.origin,t.rotate,t.skew,t.scale,t.translate):new this}}]),t}();function N(t,e,n){return t>=.5?n:e}function F(t,e,n){return 0===t||e===n?e:t*(n-e)+e}function C(t,e,n){var r=F(t,e,n);return r<=0?0:r}function D(t,e,n){var r=F(t,e,n);return r<=0?0:r>=1?1:r}function L(t,e,n){return 0===t?e:1===t?n:{x:F(t,e.x,n.x),y:F(t,e.y,n.y)}}function V(t,e,n){return 0===t?e:1===t?n:{x:C(t,e.x,n.x),y:C(t,e.y,n.y)}}function q(t,e,n){var r=function(t,e,n){return Math.round(F(t,e,n))}(t,e,n);return r<=0?0:r>=255?255:r}function G(t,e,n){return 0===t?e:1===t?n:{r:q(t,e.r,n.r),g:q(t,e.g,n.g),b:q(t,e.b,n.b),a:F(t,null==e.a?1:e.a,null==n.a?1:n.a)}}function z(t,e,n){var r=e.length;if(r!==n.length)return N(t,e,n);for(var i=new Array(r),o=0;o<r;o++)i[o]=F(t,e[o],n[o]);return i}function Y(t,e){for(var n=[],r=0;r<t;r++)n.push(e);return n}function U(t,e){if(--e<=0)return t;var n=(t=Object.assign([],t)).length;do{for(var r=0;r<n;r++)t.push(t[r])}while(--e>0);return t}var W,$=function(){function t(e){r(this,t),this.list=e,this.length=e.length}return o(t,[{key:"setAttribute",value:function(t,e){for(var n=this.list,r=0;r<this.length;r++)n[r].setAttribute(t,e)}},{key:"removeAttribute",value:function(t){for(var e=this.list,n=0;n<this.length;n++)e[n].removeAttribute(t)}},{key:"style",value:function(t,e){for(var n=this.list,r=0;r<this.length;r++)n[r].style[t]=e}}]),t}(),H=/-./g,Q=function(t,e){return e.toUpperCase()};function X(t){return"function"==typeof t?t:N}function J(t){return t?"function"==typeof t?t:Array.isArray(t)?function(t){var e=arguments.length>1&&void 0!==arguments[1]?arguments[1]:b;if(!Array.isArray(t))return e;switch(t.length){case 1:return x(t[0])||e;case 2:return x(t[0],t[1])||e;case 4:return k(t[0],t[1],t[2],t[3])||e}return e}(t,null):function(t,e){var n=arguments.length>2&&void 0!==arguments[2]?arguments[2]:b;switch(t){case"linear":return b;case"steps":return x(e.steps||1,e.jump||0)||n;case"bezier":case"cubic-bezier":return k(e.x1||0,e.y1||0,e.x2||0,e.y2||0)||n}return n}(t.type,t.value,null):null}function K(t,e,n){var r=arguments.length>3&&void 0!==arguments[3]&&arguments[3],i=e.length-1;if(t<=e[0].t)return r?[0,0,e[0].v]:e[0].v;if(t>=e[i].t)return r?[i,1,e[i].v]:e[i].v;var o,u=e[0],a=null;for(o=1;o<=i;o++){if(!(t>e[o].t)){a=e[o];break}u=e[o]}return null==a?r?[i,1,e[i].v]:e[i].v:u.t===a.t?r?[o,1,a.v]:a.v:(t=(t-u.t)/(a.t-u.t),u.e&&(t=u.e(t)),r?[o,t,n(t,u.v,a.v)]:n(t,u.v,a.v))}function Z(t,e){var n=arguments.length>2&&void 0!==arguments[2]?arguments[2]:null;return t&&t.length?"function"!=typeof e?null:("function"!=typeof n&&(n=null),function(r){var i=K(r,t,e);return null!=i&&n&&(i=n(i)),i}):null}function tt(t,e){return t.t-e.t}function et(t,e,r,i,o){var u,a="@"===r[0],s="#"===r[0],l=W[r],f=N;switch(a?(u=r.substr(1),r=u.replace(H,Q)):s&&(r=r.substr(1)),n(l)){case"function":if(f=l(i,o,K,J,r,a,e,t),s)return f;break;case"string":f=Z(i,X(l));break;case"object":if((f=Z(i,X(l.i),l.f))&&"function"==typeof l.u)return l.u(e,f,r,a,t)}return f?function(t,e,n){if(arguments.length>3&&void 0!==arguments[3]&&arguments[3])return t instanceof $?function(r){return t.style(e,n(r))}:function(r){return t.style[e]=n(r)};if(Array.isArray(e)){var r=e.length;return function(i){var o=n(i);if(null==o)for(var u=0;u<r;u++)t[u].removeAttribute(e);else for(var a=0;a<r;a++)t[a].setAttribute(e,o)}}return function(r){var i=n(r);null==i?t.removeAttribute(e):t.setAttribute(e,i)}}(e,r,f,a):null}function nt(t,e,r,i){if(!i||"object"!==n(i))return null;var o=null,u=null;return Array.isArray(i)?u=function(t){if(!t||!t.length)return null;for(var e=0;e<t.length;e++)t[e].e&&(t[e].e=J(t[e].e));return t.sort(tt)}(i):(u=i.keys,o=i.data||null),u?et(t,e,r,u,o):null}function rt(t,e,n){if(!n)return null;var r=[];for(var i in n)if(n.hasOwnProperty(i)){var o=nt(t,e,i,n[i]);o&&r.push(o)}return r.length?r:null}function it(t,e){if(!e.settings.duration||e.settings.duration<0)return null;var n,r,i,o,u,a=function(t,e){if(!e)return null;var n=[];if(Array.isArray(e))for(var r=e.length,i=0;i<r;i++){var o=e[i];if(2===o.length){var u=null;if("string"==typeof o[0])u=t.getElementById(o[0]);else if(Array.isArray(o[0])){u=[];for(var a=0;a<o[0].length;a++)if("string"==typeof o[0][a]){var s=t.getElementById(o[0][a]);s&&u.push(s)}u=u.length?1===u.length?u[0]:new $(u):null}if(u){var l=rt(t,u,o[1]);l&&(n=n.concat(l))}}}else for(var f in e)if(e.hasOwnProperty(f)){var c=t.getElementById(f);if(c){var h=rt(t,c,e[f]);h&&(n=n.concat(h))}}return n.length?n:null}(t,e.elements);return a?(n=a,r=e.settings,i=r.duration,o=n.length,u=null,function(t,e){var a=r.iterations||1/0,s=(r.alternate&&a%2==0)^r.direction>0?i:0,l=t%i,f=1+(t-l)/i;e*=r.direction,r.alternate&&f%2==0&&(e=-e);var c=!1;if(f>a)l=s,c=!0,-1===r.fill&&(l=r.direction>0?0:i);else if(e<0&&(l=i-l),l===u)return!1;u=l;for(var h=0;h<o;h++)n[h](l);return c}):null}function ot(t,e){if(W=e,!t||!t.root||!Array.isArray(t.animations))return null;var n=function(t){for(var e=document.getElementsByTagName("svg"),n=0;n<e.length;n++)if(e[n].id===t.root&&!e[n].svgatorAnimation)return e[n].svgatorAnimation=!0,e[n];return null}(t);if(!n)return null;var r=t.animations.map((function(t){return it(n,t)})).filter((function(t){return!!t}));return r.length?{svg:n,animations:r,animationSettings:t.animationSettings,options:t.options||void 0}:null}function ut(t){var e=arguments.length>1&&void 0!==arguments[1]?arguments[1]:null,n=arguments.length>2&&void 0!==arguments[2]?arguments[2]:Number,r=arguments.length>3&&void 0!==arguments[3]?arguments[3]:"undefined"!=typeof BigInt&&BigInt,i="0x"+(t.replace(/[^0-9a-fA-F]+/g,"")||27);return e&&r&&n.isSafeInteger&&!n.isSafeInteger(+i)?n(r(i))%e+e:+i}function at(t,e,n){return!t||!n||e>t.length?t:t.substring(0,e)+at(t.substring(e+1),n,n)}function st(t){var e=arguments.length>1&&void 0!==arguments[1]?arguments[1]:27;return!t||t%e?t%e:[0,1].includes(e)?e:st(t/e,e)}function lt(t,e,n){if(t&&t.length){var r=ut(n),i=st(r)+5,o=at(t,st(r,5),i);return o=o.replace(/\x7c$/g,"==").replace(/\x2f$/g,"="),o=function(t,e,n){var r=+("0x"+t.substring(0,4));t=t.substring(4);for(var i=ut(e,r)%r+n%27,o=[],u=0;u<t.length;u+=2)if("|"!==t[u]){var a=+("0x"+t[u]+t[u+1])-i;o.push(a)}else{var s=+("0x"+t.substring(u+1,u+1+4))-i;u+=3,o.push(s)}return String.fromCharCode.apply(String,o)}(o=(o=atob(o)).replace(/[\x41-\x5A]/g,""),e,r),o=JSON.parse(o)}}var ft=[{key:"alternate",def:!1},{key:"fill",def:1},{key:"iterations",def:0},{key:"direction",def:1},{key:"speed",def:1},{key:"fps",def:100}],ct=function(){function t(e,n){var i=this,o=arguments.length>2&&void 0!==arguments[2]?arguments[2]:null;r(this,t),this._id=0,this._running=!1,this._rollingBack=!1,this._animations=e,this._settings=n,(!o||o<"2022-05-02")&&delete this._settings.speed,ft.forEach((function(t){i._settings[t.key]=i._settings[t.key]||t.def})),this.duration=n.duration,this.offset=n.offset||0,this.rollbackStartOffset=0}return o(t,[{key:"alternate",get:function(){return this._settings.alternate}},{key:"fill",get:function(){return this._settings.fill}},{key:"iterations",get:function(){return this._settings.iterations}},{key:"direction",get:function(){return this._settings.direction}},{key:"speed",get:function(){return this._settings.speed}},{key:"fps",get:function(){return this._settings.fps}},{key:"maxFiniteDuration",get:function(){return this.iterations>0?this.iterations*this.duration:this.duration}},{key:"_apply",value:function(t){for(var e=arguments.length>1&&void 0!==arguments[1]?arguments[1]:{},n=this._animations,r=n.length,i=0,o=0;o<r;o++)e[o]?i++:(e[o]=n[o](t,1),e[o]&&i++);return i}},{key:"_rollback",value:function(t){var e=this,n=1/0,r=null;this.rollbackStartOffset=t,this._rollingBack=!0,this._running=!0;this._id=window.requestAnimationFrame((function i(o){if(e._rollingBack){null==r&&(r=o);var u=Math.round(t-(o-r)*e.speed);if(u>e.duration&&n!==1/0){var a=!!e.alternate&&u/e.duration%2>1,s=u%e.duration;u=(s+=a?e.duration:0)||e.duration}var l=(e.fps?1e3/e.fps:0)*e.speed,f=Math.max(0,u);f<=n-l&&(e.offset=f,n=f,e._apply(f));var c=e.iterations>0&&-1===e.fill&&u>=e.maxFiniteDuration;(u<=0||e.offset<u||c)&&e.stop(),e._id=window.requestAnimationFrame(i)}}))}},{key:"_start",value:function(){var t=this,e=arguments.length>0&&void 0!==arguments[0]?arguments[0]:0,n=-1/0,r=null,i={};this._running=!0;var o=function o(u){null==r&&(r=u);var a=Math.round((u-r)*t.speed+e),s=(t.fps?1e3/t.fps:0)*t.speed;if(a>=n+s&&!t._rollingBack&&(t.offset=a,n=a,t._apply(a,i)===t._animations.length))return void t.pause(!0);t._id=window.requestAnimationFrame(o)};this._id=window.requestAnimationFrame(o)}},{key:"_pause",value:function(){this._id&&window.cancelAnimationFrame(this._id),this._running=!1}},{key:"play",value:function(){if(!this._running)return this._rollingBack?this._rollback(this.offset):this._start(this.offset)}},{key:"stop",value:function(){this._pause(),this.offset=0,this.rollbackStartOffset=0,this._rollingBack=!1,this._apply(0)}},{key:"reachedToEnd",value:function(){return this.iterations>0&&this.offset>=this.iterations*this.duration}},{key:"restart",value:function(){var t=arguments.length>0&&void 0!==arguments[0]&&arguments[0];this.stop(t),this.play(t)}},{key:"pause",value:function(){this._pause()}},{key:"reverse",value:function(){this.direction=-this.direction}}],[{key:"build",value:function(t,e){delete t.animationSettings,t.options=lt(t.options,t.root,"91c80d77"),t.animations.map((function(e){e.settings=lt(e.s,t.root,"91c80d77"),delete e.s,t.animationSettings||(t.animationSettings=e.settings)}));var n=t.version;if(!(t=ot(t,e)))return null;var r=t.options||{},i=new this(t.animations,t.animationSettings,n);return{el:t.svg,options:r,player:i}}},{key:"push",value:function(t){return this.build(t)}},{key:"init",value:function(){var t=this,e=window.__SVGATOR_PLAYER__&&window.__SVGATOR_PLAYER__["91c80d77"];Array.isArray(e)&&e.splice(0).forEach((function(e){return t.build(e)}))}}]),t}();!function(){for(var t=0,e=["ms","moz","webkit","o"],n=0;n<e.length&&!window.requestAnimationFrame;++n)window.requestAnimationFrame=window[e[n]+"RequestAnimationFrame"],window.cancelAnimationFrame=window[e[n]+"CancelAnimationFrame"]||window[e[n]+"CancelRequestAnimationFrame"];window.requestAnimationFrame||(window.requestAnimationFrame=function(e){var n=Date.now(),r=Math.max(0,16-(n-t)),i=window.setTimeout((function(){e(n+r)}),r);return t=n+r,i},window.cancelAnimationFrame=window.clearTimeout)}();var ht=function(){function t(e,n,i){r(this,t);var o=function(t){var e,n,r,i=t&&1===(null===(e=t.ownerDocument)||void 0===e||null===(n=e.childNodes)||void 0===n?void 0:n.length)&&window.parent!==window,o={el:t,window:window};if(!i)return o;try{r=window.parent.document}catch(t){return o}return o.window=window.parent,o.el=Array.from(r.querySelectorAll("iframe,object")).filter((function(t){return t.contentWindow===window}))[0]||o.el,o}(e);n=Math.max(1,n||1),n=Math.min(n,100),this.el=o.el,this._handlers=[],this.onThresholdChange=i&&i.call?i:function(){},this.thresholdPercent=n||1,this.currentVisibility=null,this.visibilityCalculator=function(t,e){var n=arguments.length>2&&void 0!==arguments[2]?arguments[2]:n,r=!1,i=null,o=function(){for(var o=0,u=n.innerHeight,a=0,s=n.innerWidth,l=t.parentNode;l instanceof Element;){var f=n.getComputedStyle(l);if("visible"!==f.overflowY||"visible"!==f.overflowX){var c=l.getBoundingClientRect();"visible"!==f.overflowY&&(o=Math.max(o,c.top),u=Math.min(u,c.bottom)),"visible"!==f.overflowX&&(a=Math.max(a,c.left),s=Math.min(s,c.right))}if(l===l.parentNode)break;l=l.parentNode}r=!1;var h=t.getBoundingClientRect(),v=Math.min(h.height,Math.max(0,o-h.top)),d=Math.min(h.height,Math.max(0,h.bottom-u)),y=Math.min(h.width,Math.max(0,a-h.left)),g=Math.min(h.width,Math.max(0,h.right-s)),p=(h.height-v-d)/h.height,m=(h.width-y-g)/h.width,b=Math.round(p*m*100);null!==i&&i===b||(i=b,e(b))};return function(t){r&&clearTimeout(r),r=setTimeout((function(){return o()}),100)}}(this.el,this.onVisibilityUpdate.bind(this),o.window),this.bindScrollWatchers(),this.visibilityCalculator()}return o(t,[{key:"bindScrollWatchers",value:function(){for(var t=this.el.parentNode;t&&(this._handlers.push({element:t,event:"scroll",handler:this.visibilityCalculator}),t.addEventListener("scroll",this.visibilityCalculator),t!==t.parentNode&&t!==document);)t=t.parentNode}},{key:"onVisibilityUpdate",value:function(t){var e=this.currentVisibility>=this.thresholdPercent,n=t>=this.thresholdPercent;if(null===this.currentVisibility||e!==n)return this.currentVisibility=t,void this.onThresholdChange(n);this.currentVisibility=t}},{key:"destruct",value:function(){this._handlers.forEach((function(t){t.element.removeEventListener(t.event,t.handler)}))}}]),t}();function vt(t){return g(t)+""}function dt(t){var e=arguments.length>1&&void 0!==arguments[1]?arguments[1]:" ";return t&&t.length?t.map(vt).join(e):""}function yt(t){return vt(t.x)+","+vt(t.y)}function gt(t){if(!t)return"transparent";if(null==t.a||t.a>=1){var e=function(t){return 1===(t=parseInt(t).toString(16)).length?"0"+t:t},n=function(t){return t.charAt(0)===t.charAt(1)},r=e(t.r),i=e(t.g),o=e(t.b);return n(r)&&n(i)&&n(o)&&(r=r.charAt(0),i=i.charAt(0),o=o.charAt(0)),"#"+r+i+o}return"rgba("+t.r+","+t.g+","+t.b+","+t.a+")"}function pt(t){return t?"url(#"+t+")":"none"}var mt={f:null,i:V,u:function(t,e){return function(n){var r=e(n);t.setAttribute("rx",vt(r.x)),t.setAttribute("ry",vt(r.y))}}},bt={f:null,i:function(t,e,n){return 0===t?e:1===t?n:{width:C(t,e.width,n.width),height:C(t,e.height,n.height)}},u:function(t,e){return function(n){var r=e(n);t.setAttribute("width",vt(r.width)),t.setAttribute("height",vt(r.height))}}};Object.freeze({M:2,L:2,Z:0,H:1,V:1,C:6,Q:4,T:2,S:4,A:7});var wt={},kt=null;function _t(t){var e=function(){if(kt)return kt;if("object"!==("undefined"==typeof document?"undefined":n(document))||!document.createElementNS)return{};var t=document.createElementNS("http://www.w3.org/2000/svg","svg");return t&&t.style?(t.style.position="absolute",t.style.opacity="0.01",t.style.zIndex="-9999",t.style.left="-9999px",t.style.width="1px",t.style.height="1px",kt={svg:t}):{}}().svg;if(!e)return function(t){return null};var r=document.createElementNS(e.namespaceURI,"path");r.setAttributeNS(null,"d",t),r.setAttributeNS(null,"fill","none"),r.setAttributeNS(null,"stroke","none"),e.appendChild(r);var i=r.getTotalLength();return function(t){var e=r.getPointAtLength(i*t);return{x:e.x,y:e.y}}}function At(t){return wt[t]?wt[t]:wt[t]=_t(t)}function xt(t,e,n,r){if(!t||!r)return!1;var i=["M",t.x,t.y];if(e&&n&&(i.push("C"),i.push(e.x),i.push(e.y),i.push(n.x),i.push(n.y)),e?!n:n){var o=e||n;i.push("Q"),i.push(o.x),i.push(o.y)}return e||n||i.push("L"),i.push(r.x),i.push(r.y),i.join(" ")}function Ot(t,e,n,r){var i=arguments.length>4&&void 0!==arguments[4]?arguments[4]:1,o=xt(t,e,n,r),u=At(o);try{return u(i)}catch(t){return null}}function St(t,e,n){return t+(e-t)*n}function Et(t,e,n){var r=arguments.length>3&&void 0!==arguments[3]&&arguments[3],i={x:St(t.x,e.x,n),y:St(t.y,e.y,n)};return r&&(i.a=Pt(t,e)),i}function Pt(t,e){return Math.atan2(e.y-t.y,e.x-t.x)}function jt(t,e,n,r){var i=1-r;return i*i*t+2*i*r*e+r*r*n}function Mt(t,e,n,r){return 2*(1-r)*(e-t)+2*r*(n-e)}function Bt(t,e,n,r){var i=arguments.length>4&&void 0!==arguments[4]&&arguments[4],o=Ot(t,e,null,n,r);return o||(o={x:jt(t.x,e.x,n.x,r),y:jt(t.y,e.y,n.y,r)}),i&&(o.a=It(t,e,n,r)),o}function It(t,e,n,r){return Math.atan2(Mt(t.y,e.y,n.y,r),Mt(t.x,e.x,n.x,r))}function Tt(t,e,n,r,i){var o=i*i;return i*o*(r-t+3*(e-n))+3*o*(t+n-2*e)+3*i*(e-t)+t}function Rt(t,e,n,r,i){var o=1-i;return 3*(o*o*(e-t)+2*o*i*(n-e)+i*i*(r-n))}function Nt(t,e,n,r,i){var o=arguments.length>5&&void 0!==arguments[5]&&arguments[5],u=Ot(t,e,n,r,i);return u||(u={x:Tt(t.x,e.x,n.x,r.x,i),y:Tt(t.y,e.y,n.y,r.y,i)}),o&&(u.a=Ft(t,e,n,r,i)),u}function Ft(t,e,n,r,i){return Math.atan2(Rt(t.y,e.y,n.y,r.y,i),Rt(t.x,e.x,n.x,r.x,i))}function Ct(t,e,n){var r=arguments.length>3&&void 0!==arguments[3]&&arguments[3];if(Lt(e)){if(Vt(n))return Bt(e,n.start,n,t,r)}else if(Lt(n)){if(qt(e))return Bt(e,e.end,n,t,r)}else{if(qt(e))return Vt(n)?Nt(e,e.end,n.start,n,t,r):Bt(e,e.end,n,t,r);if(Vt(n))return Bt(e,n.start,n,t,r)}return Et(e,n,t,r)}function Dt(t,e,n){var r=Ct(t,e,n,!0);return r.a=function(t){return arguments.length>1&&void 0!==arguments[1]&&arguments[1]?t+Math.PI:t}(r.a)/m,r}function Lt(t){return!t.type||"corner"===t.type}function Vt(t){return null!=t.start&&!Lt(t)}function qt(t){return null!=t.end&&!Lt(t)}var Gt=new R;var zt={f:function(t){return t?t.join(" "):""},i:function(t,e,r){if(0===t)return e;if(1===t)return r;var i=e.length;if(i!==r.length)return N(t,e,r);for(var o,u=new Array(i),a=0;a<i;a++){if((o=n(e[a]))!==n(r[a]))return N(t,e,r);if("number"===o)u[a]=F(t,e[a],r[a]);else{if(e[a]!==r[a])return N(t,e,r);u[a]=e[a]}}return u}},Yt={f:null,i:z,u:function(t,e){return function(n){var r=e(n);t.setAttribute("x1",vt(r[0])),t.setAttribute("y1",vt(r[1])),t.setAttribute("x2",vt(r[2])),t.setAttribute("y2",vt(r[3]))}}},Ut={f:vt,i:F},Wt={f:vt,i:D},$t={f:function(t){var e=arguments.length>1&&void 0!==arguments[1]?arguments[1]:" ";return t&&t.length>0&&(t=t.map((function(t){return g(t,4)}))),dt(t,e)},i:function(t,e,n){var r,i,o,u=e.length,a=n.length;if(u!==a)if(0===u)e=Y(u=a,0);else if(0===a)a=u,n=Y(u,0);else{var s=(o=(r=u)*(i=a)/function(t,e){for(var n;e;)n=e,e=t%e,t=n;return t||1}(r,i))<0?-o:o;e=U(e,Math.floor(s/u)),n=U(n,Math.floor(s/a)),u=a=s}for(var l=[],f=0;f<u;f++)l.push(g(C(t,e[f],n[f])));return l}};function Ht(t,e,n){return t.map((function(t){return function(t,e,n){var r=t.v;if(!r||"g"!==r.t||r.s||!r.v||!r.r)return t;var i=n.getElementById(r.r),o=i&&i.querySelectorAll("stop")||[];return r.s=r.v.map((function(t,e){var n=o[e]&&o[e].getAttribute("offset");return{c:t,o:n=g(parseInt(n)/100)}})),delete r.v,t}(t,0,n)}))}var Qt={gt:"gradientTransform",c:{x:"cx",y:"cy"},rd:"r",f:{x:"x1",y:"y1"},to:{x:"x2",y:"y2"}};function Xt(t,e,r,i,o,u,a,s){return Ht(t,0,s),e=function(t,e,n){for(var r,i,o,u=t.length-1,a={},s=0;s<=u;s++)(r=t[s]).e&&(r.e=e(r.e)),r.v&&"g"===(i=r.v).t&&i.r&&(o=n.getElementById(i.r))&&(a[i.r]={e:o,s:o.querySelectorAll("stop")});return a}(t,i,s),function(i){var o=r(i,t,Jt);if(!o)return"none";if("c"===o.t)return gt(o.v);if("g"===o.t){if(!e[o.r])return pt(o.r);var u=e[o.r];return function(t,e){for(var n=t.s,r=n.length;r<e.length;r++){var i=n[n.length-1].cloneNode();i.id=te(i.id),t.e.appendChild(i),n=t.s=t.e.querySelectorAll("stop")}for(var o=0,u=n.length,a=e.length-1;o<u;o++)n[o].setAttribute("stop-color",gt(e[Math.min(o,a)].c)),n[o].setAttribute("offset",e[Math.min(o,a)].o)}(u,o.s),Object.keys(Qt).forEach((function(t){if(void 0!==o[t])if("object"!==n(Qt[t])){var e,r="gt"===t?(e=o[t],Array.isArray(e)?"matrix("+e.join(" ")+")":""):o[t],i=Qt[t];u.e.setAttribute(i,r)}else Object.keys(Qt[t]).forEach((function(e){if(void 0!==o[t][e]){var n=o[t][e],r=Qt[t][e];u.e.setAttribute(r,n)}}))})),pt(o.r)}return"none"}}function Jt(t,n,r){if(0===t)return n;if(1===t)return r;if(n&&r){var i=n.t;if(i===r.t)switch(n.t){case"c":return{t:i,v:G(t,n.v,r.v)};case"g":if(n.r===r.r){var o={t:i,s:Kt(t,n.s,r.s),r:n.r};return n.gt&&r.gt&&(o.gt=z(t,n.gt,r.gt)),n.c?(o.c=L(t,n.c,r.c),o.rd=C(t,n.rd,r.rd)):n.f&&(o.f=L(t,n.f,r.f),o.to=L(t,n.to,r.to)),o}}if("c"===n.t&&"g"===r.t||"c"===r.t&&"g"===n.t){var u="c"===n.t?n:r,a="g"===n.t?e({},n):e({},r),s=a.s.map((function(t){return{c:u.v,o:t.o}}));return a.s="c"===n.t?Kt(t,s,a.s):Kt(t,a.s,s),a}}return N(t,n,r)}function Kt(t,e,n){if(e.length===n.length)return e.map((function(e,r){return Zt(t,e,n[r])}));for(var r=Math.max(e.length,n.length),i=[],o=0;o<r;o++){var u=Zt(t,e[Math.min(o,e.length-1)],n[Math.min(o,n.length-1)]);i.push(u)}return i}function Zt(t,e,n){return{o:D(t,e.o,n.o||0),c:G(t,e.c,n.c||{})}}function te(t){return t.replace(/-fill-([0-9]+)$/,(function(t,e){return"-fill-"+(+e+1)}))}var ee={blur:V,brightness:C,contrast:C,"drop-shadow":function(t,e,n){return 0===t?e:1===t?n:{blur:V(t,e.blur,n.blur),offset:L(t,e.offset,n.offset),color:G(t,e.color,n.color)}},grayscale:C,"hue-rotate":F,invert:C,opacity:C,saturate:C,sepia:C};function ne(t,e,n){if(0===t)return e;if(1===t)return n;var r=e.length;if(r!==n.length)return N(t,e,n);for(var i,o=[],u=0;u<r;u++){if(e[u].type!==n[u].type)return e;if(!(i=ee[e[u].type]))return N(t,e,n);o.push({type:e.type,value:i(t,e[u].value,n[u].value)})}return o}var re={blur:function(t){return t?function(e){t.setAttribute("stdDeviation",yt(e))}:null},brightness:function(t,e,n){return(t=oe(n,e))?function(e){e=vt(e),t.map((function(t){return t.setAttribute("slope",e)}))}:null},contrast:function(t,e,n){return(t=oe(n,e))?function(e){var n=vt((1-e)/2);e=vt(e),t.map((function(t){t.setAttribute("slope",e),t.setAttribute("intercept",n)}))}:null},"drop-shadow":function(t,e,n){var r=n.getElementById(e+"-blur");if(!r)return null;var i=n.getElementById(e+"-offset");if(!i)return null;var o=n.getElementById(e+"-flood");return o?function(t){r.setAttribute("stdDeviation",yt(t.blur)),i.setAttribute("dx",vt(t.offset.x)),i.setAttribute("dy",vt(t.offset.y)),o.setAttribute("flood-color",gt(t.color))}:null},grayscale:function(t){return t?function(e){t.setAttribute("values",dt(function(t){return[.2126+.7874*(t=1-t),.7152-.7152*t,.0722-.0722*t,0,0,.2126-.2126*t,.7152+.2848*t,.0722-.0722*t,0,0,.2126-.2126*t,.7152-.7152*t,.0722+.9278*t,0,0,0,0,0,1,0]}(e)))}:null},"hue-rotate":function(t){return t?function(e){return t.setAttribute("values",vt(e))}:null},invert:function(t,e,n){return(t=oe(n,e))?function(e){e=vt(e)+" "+vt(1-e),t.map((function(t){return t.setAttribute("tableValues",e)}))}:null},opacity:function(t,e,n){return(t=n.getElementById(e+"-A"))?function(e){return t.setAttribute("tableValues","0 "+vt(e))}:null},saturate:function(t){return t?function(e){return t.setAttribute("values",vt(e))}:null},sepia:function(t){return t?function(e){return t.setAttribute("values",dt(function(t){return[.393+.607*(t=1-t),.769-.769*t,.189-.189*t,0,0,.349-.349*t,.686+.314*t,.168-.168*t,0,0,.272-.272*t,.534-.534*t,.131+.869*t,0,0,0,0,0,1,0]}(e)))}:null}};var ie=["R","G","B"];function oe(t,e){var n=ie.map((function(n){return t.getElementById(e+"-"+n)||null}));return-1!==n.indexOf(null)?null:n}var ue={fill:Xt,"fill-opacity":Wt,stroke:Xt,"stroke-opacity":Wt,"stroke-width":Ut,"stroke-dashoffset":{f:vt,i:F},"stroke-dasharray":$t,opacity:Wt,transform:function(t,e,r,i){if(!(t=function(t,e){if(!t||"object"!==n(t))return null;var r=!1;for(var i in t)t.hasOwnProperty(i)&&(t[i]&&t[i].length?(t[i].forEach((function(t){t.e&&(t.e=e(t.e))})),r=!0):delete t[i]);return r?t:null}(t,i)))return null;var o=function(n,i,o){var u=arguments.length>3&&void 0!==arguments[3]?arguments[3]:null;return t[n]?r(i,t[n],o):e&&e[n]?e[n]:u};return e&&e.a&&t.o?function(e){var n=r(e,t.o,Dt);return Gt.recomposeSelf(n,o("r",e,F,0)+n.a,o("k",e,L),o("s",e,L),o("t",e,L)).toString()}:function(t){return Gt.recomposeSelf(o("o",t,Ct,null),o("r",t,F,0),o("k",t,L),o("s",t,L),o("t",t,L)).toString()}},"#filter":function(t,e,n,r,i,o,u,a){if(!e.items||!t||!t.length)return null;var s=function(t,e){var n=(t=t.map((function(t){return t&&re[t[0]]?(e.getElementById(t[1]),re[t[0]](e.getElementById(t[1]),t[1],e)):null}))).length;return function(e){for(var r=0;r<n;r++)t[r]&&t[r](e[r].value)}}(e.items,a);return s?(t=function(t,e){return t.map((function(t){return t.e=e(t.e),t}))}(t,r),function(e){s(n(e,t,ne))}):null},"#line":Yt,points:{f:dt,i:z},d:zt,r:Ut,"#size":bt,"#radius":mt,_:function(t,e){if(Array.isArray(t))for(var n=0;n<t.length;n++)this[t[n]]=e;else this[t]=e}},ae={currentTime:"offset",duration:"duration",hasEnded:function(){return this.reachedToEnd()},isAlternate:"alternate",isPlaying:"_running",isRollingBack:"_rollingBack",state:function(t,e){return e.isPlaying?e.isRollingBack?"rollback":"playing":e.hasEnded?"ended":"paused"},totalTime:"maxFiniteDuration",iterations:"iterations",direction:"direction",fill:"fill",isReversed:function(t,e){return-1===e.direction},isBackwards:function(t,e){return-1===e.fill},isInfinite:function(t,e){return 0===e.iterations},speed:"speed",fps:"fps"},se={destruct:"destruct",pause:"pause",play:function(t,e){return le(t,e.hasEnded?"restart":"play",e)},restart:"restart",reverse:function(t,e){return le(t,"reverse",e,[!0])},seek:"seek",seekBy:"seekBy",seekTo:"seekTo",stop:"stop",toggle:"toggle",togglePlay:"toggle",set:"set"};function le(t,e,n){var r=arguments.length>3&&void 0!==arguments[3]?arguments[3]:[];return function(){var i,o=Array.prototype.slice.call(arguments);return o.unshift.apply(o,v(r)),(i=t[e]).call.apply(i,[t].concat(v(o))),n}}var fe=function t(e){r(this,t);var n={},i=["on","off"],o={get:function(t,e,r){return ae[e]?"function"==typeof ae[e]?ae[e].call(t,t,r):t[ae[e]]:se[e]?"function"==typeof se[e]?se[e].call(t,t,r):le(t,se[e],r):-1!==i.indexOf(e)?n[e]:"ready"===e?function(t){return t&&t.call(r,r),r}:void 0},set:function(t,e,r){return-1!==i.indexOf(e)&&(n[e]=r)},ownKeys:function(t){return Object.keys(ae)},has:function(t,e){return void 0!==ae[e]}};if("function"==typeof Proxy)return new Proxy(e,o);var u=Object.keys(ae).concat(Object.keys(se)).concat(i),a={};return u.forEach((function(t){var n={enumerable:!1,configurable:!1,get:function(){return o.get(e,t,a)}};-1!==i.indexOf(t)&&(n.set=function(n){return o.set(e,t,n)}),Object.defineProperty(a,t,n)})),a};function ce(t){t||(t=this);var e={};this.on=function(t,n){var r=arguments.length>2&&void 0!==arguments[2]&&arguments[2];return"function"==typeof n&&(t.split(/[, ]+/g).forEach((function(t){return e[t]=e[t]||[],r?e[t].unshift(n):e[t].push(n)})),!0)},this.off=function(t,n){for(var r in e)if(e.hasOwnProperty(r)&&r.substr(0,t.length)===t)if(n)for(var i=0;i<e[r].length;i++)e[r][i]===n&&(e[r][i]=null);else e[r]=null},this.trigger=function(){var n,r=Array.prototype.slice.call(arguments),i=r[0],o=r.slice(1);t:for(var u in e)if(e.hasOwnProperty(u)&&e[u]&&(u===i||u.substr(0,i.length+1)===i+"."))for(var a=0;a<(e[u]||[]).length;a++)if(e[u][a]&&!1===(n=e[u][a].apply(t,o)))break t;return n}}var he=!0,ve=["iterations","speed","fps","direction","fill","alternate"],de=function(t){!function(t,e){if("function"!=typeof e&&null!==e)throw new TypeError("Super expression must either be null or a function");t.prototype=Object.create(e&&e.prototype,{constructor:{value:t,writable:!0,configurable:!0}}),e&&s(t,e)}(u,t);var e,n,i=(e=u,n=l(),function(){var t,r=a(e);if(n){var i=a(this).constructor;t=Reflect.construct(r,arguments,i)}else t=r.apply(this,arguments);return c(this,t)});function u(t,e){var n,o=arguments.length>2&&void 0!==arguments[2]?arguments[2]:null;return r(this,u),(n=i.call(this,t,e,o))._handlers=[],n}return o(u,[{key:"_adjustOffset",value:function(){var t=arguments.length>0&&void 0!==arguments[0]&&arguments[0],e=this.alternate?2*this.duration:this.duration;if(t){if(!this._rollingBack&&0===this.offset)return void(this.offset=e);this._rollingBack&&(this.offset,this.maxFiniteDuration)}!this._rollingBack||this.rollbackStartOffset<=this.duration?0!==this.iterations&&(this.offset=Math.min(this.offset,this.maxFiniteDuration)):(this.offset=this.rollbackStartOffset-(this.rollbackStartOffset-this.offset)%e,this.rollbackStartOffset=0)}},{key:"reverse",value:function(){var t=arguments.length>0&&void 0!==arguments[0]&&arguments[0];if(!this._running)return this._adjustOffset(t),this._rollingBack=!this._rollingBack,t&&this.play(!1),void this.trigger("reverse",this.offset);this.pause(!1,!1),this._adjustOffset(),this._rollingBack=!this._rollingBack,this.play(!1),this.trigger("reverse",this.offset)}},{key:"play",value:function(){var t=arguments.length>0&&void 0!==arguments[0]?arguments[0]:he,e=h(a(u.prototype),"play",this).call(this);return t===he&&this.trigger("play",this.offset),e}},{key:"pause",value:function(){var t=arguments.length>0&&void 0!==arguments[0]&&arguments[0],e=arguments.length>1&&void 0!==arguments[1]?arguments[1]:he,n=h(a(u.prototype),"pause",this).call(this);return e===he&&this.trigger(t?"end":"pause",this.offset),n}},{key:"restart",value:function(){var t=h(a(u.prototype),"restart",this).call(this,!1);return this.trigger("restart",this.offset),t}},{key:"stop",value:function(){var t=arguments.length>0&&void 0!==arguments[0]?arguments[0]:he,e=h(a(u.prototype),"stop",this).call(this);return t===he&&this.trigger("stop",this.offset),e}},{key:"_apply",value:function(t){var e=this,n=arguments.length>2&&void 0!==arguments[2]?arguments[2]:he,r=h(a(u.prototype),"_apply",this).call(this,t);if(n===he){var i=function(){return e.trigger("keyframe",t)};window.requestAnimationFrame(i)}return r}},{key:"seekTo",value:function(t){var e,n,r,i=this._running;i&&this.pause(!1,!1),this.offset=this.iterations>0?(e=t,n=0,r=this.maxFiniteDuration,e<n?n:e>r?r:e):Math.max(t,0),this._apply(this.offset),i&&this.play(!1)}},{key:"seek",value:function(t){return this.seekTo(Math.round(t/100*this.maxFiniteDuration))}},{key:"seekBy",value:function(t){return this.seekTo(this.offset+t)}},{key:"toggle",value:function(){return this._running?this.pause():this.reachedToEnd()?this.restart():this.play()}},{key:"set",value:function(t,e){if(ve.includes(t)){var n=this._running;n&&this.pause(!1,!1),this._settings[t]=e,n?this.play(!1):this._apply(this.offset,{},!1)}}},{key:"destruct",value:function(){var t=this;this.stop(),this._handlers.forEach((function(t){t.element?t.element.removeEventListener(t.event,t.handler):t.callback&&t.callback.call&&t.callback.call()}));var e=function(){},n=Object.getOwnPropertyNames(Object.getPrototypeOf(this));n.push.apply(n,v(Object.getOwnPropertyNames(this))),n.forEach((function(n){"function"==typeof t[n]?t[n]=e:delete t[n]}))}}],[{key:"build",value:function(t){var e=h(a(u),"build",this).call(this,t,ue);if(!e)return null;var n=e.el,r=e.options,i=e.player,o=new fe(i),s=new ce(o);o.on=s.on,o.off=s.off,i.trigger=s.trigger;var l=n.svgatorPlayer&&n.svgatorPlayer.ready&&n.svgatorPlayer.ready.call&&n.svgatorPlayer.ready.call();n.svgatorPlayer=o,function(t,e,n){if("click"===n.start){var r=function(){switch(n.click){case"freeze":return!t._running&&t.reachedToEnd()?t.restart():t.toggle();case"restart":return t.offset>0?t.restart():t.play();case"reverse":return t._running?t.reverse():t.reachedToEnd()?1===t.fill?t.reverse(!0):t.restart():t.play();case"none":default:if(t._running)return;return t.reachedToEnd()?t.restart():t.play()}};return t._handlers.push({element:e,event:"click",handler:r}),void e.addEventListener("click",r)}if("hover"===n.start){var i=function(){return t.reachedToEnd()?t.restart():t._rollingBack?t.reverse():t.play()};t._handlers.push({element:e,event:"mouseenter",handler:i}),e.addEventListener("mouseenter",i);var o=function(){switch(n.hover){case"freeze":return t.pause();case"reset":return t.stop();case"reverse":if(t.reverse(),t._running)return;return t.play();case"none":default:return}};return t._handlers.push({element:e,event:"mouseleave",handler:o}),void e.addEventListener("mouseleave",o)}if("scroll"===n.start){var u=new ht(e,n.scroll||25,(function(e){e?t.reachedToEnd()?t.restart():t.play():t.pause()}));return void t._handlers.push({callback:function(){return u.destruct()}})}if("programmatic"===n.start)return;t.play()}(i,n,r),function(t,e,n){var r;"function"==typeof Event?r=new Event("ready"):(r=document.createEvent("Event")).initEvent("ready",!0,!0);if(t.dispatchEvent(r),!n||!n.length)return;n.forEach((function(t){return e.ready(t)}))}(n,n.svgatorPlayer,l)}}]),u}(ct);return de.init(),de}));
(function(s,i,o,w,d,a,b){(a=Array.from(d.querySelectorAll('svg#' + i.root)).filter(n=> !n.svgatorPlayer)[0]||{}).svgatorPlayer={ready:(function(a){b=[];return function(c){return c?(b.push(c),a.svgatorPlayer):b}})(a)};w[o]=w[o]||{};w[o][s]=w[o][s]||[];w[o][s].push(i);})('91c80d77',{"root":"eSF06Ze4dwX1","version":"2022-05-04","animations":[{"elements":{"eSF06Ze4dwX21":{"opacity":[{"t":1500,"v":0,"e":[0.165,0.84,0.44,1]},{"t":2000,"v":1}]},"eSF06Ze4dwX22":{"opacity":[{"t":2000,"v":0,"e":[0.165,0.84,0.44,1]},{"t":2500,"v":1}]},"eSF06Ze4dwX23":{"opacity":[{"t":2500,"v":0,"e":[0.165,0.84,0.44,1]},{"t":3000,"v":1}]},"eSF06Ze4dwX24":{"opacity":[{"t":3000,"v":0,"e":[0.165,0.84,0.44,1]},{"t":3500,"v":1}]},"eSF06Ze4dwX25":{"opacity":[{"t":3500,"v":0,"e":[0.165,0.84,0.44,1]},{"t":4000,"v":1}]},"eSF06Ze4dwX26":{"transform":{"data":{"o":{"x":231.0345,"y":411.5,"type":"corner"},"t":{"x":-26.0345,"y":-160.5}},"keys":{"s":[{"t":1000,"v":{"x":1,"y":0.000029},"e":[0.165,0.84,0.44,1]},{"t":2000,"v":{"x":1,"y":1}}]}}},"eSF06Ze4dwX27":{"transform":{"data":{"o":{"x":411.529,"y":411.5,"type":"corner"},"t":{"x":-25.529,"y":-201.5}},"keys":{"s":[{"t":1500,"v":{"x":1,"y":-0.00005},"e":[0.165,0.84,0.44,1]},{"t":2500,"v":{"x":1,"y":1}}]}}},"eSF06Ze4dwX28":{"transform":{"data":{"o":{"x":593.058,"y":411.5,"type":"corner"},"t":{"x":-26.058,"y":-207.5}},"keys":{"s":[{"t":2000,"v":{"x":1,"y":-0.000162},"e":[0.165,0.84,0.44,1]},{"t":3000,"v":{"x":1,"y":1}}]}}},"eSF06Ze4dwX29":{"transform":{"data":{"o":{"x":773.501,"y":411.5,"type":"corner"},"t":{"x":-25.501,"y":-275.5}},"keys":{"s":[{"t":2500,"v":{"x":1,"y":-0.000098},"e":[0.165,0.84,0.44,1]},{"t":3500,"v":{"x":1,"y":1}}]}}},"eSF06Ze4dwX30":{"transform":{"data":{"o":{"x":955.0635,"y":411.5,"type":"corner"},"t":{"x":-26.0635,"y":-286.5}},"keys":{"s":[{"t":3000,"v":{"x":1,"y":-0.000031},"e":[0.165,0.84,0.44,1]},{"t":4000,"v":{"x":1,"y":1}}]}}}},"s":"MDHA1ZWE2NGQ4ZBmEwOWQ4YzlmQOTROOWE5OTRVkNjU1YzVjNjVM1YjViNTc0ZEDhmOTQ5ZFk5PMDhlOWY5NDlLhOTk0ZDY1NWIM1NzRkOTQ5ZXjkwOWQ4YzlmQQTk0OWE5OTlTlUDRkNjU1YzWU3NGQ5MTk0OVTdZOTc0ZDY1ANWM1N0U0ZDhAjOTdXOWY5MEL45ZDk5OGM5ZBjkwNGQ2NTkxIOGM5NzllOTAW1NzRkOWU5YjGkwOTA4ZkM0ZUE42NTVjNTc0HZDkxOWI5ZTRQkNjU1YzViNWHJhOA|"}],"options":"MDGAxZTg4MmY4MJDgxNmVCN2Y4CMTJmNDcyZjgLwNzA3ZjdjNzMlCNzkyZjM5MQmY4MDcwN2Y3GYzc5NzkyZjQQ3M2YzZDhh"},'__SVGATOR_PLAYER__',window,document)
]]></script>
</svg>
